%TF.GenerationSoftware,KiCad,Pcbnew,10.0.2*%
%TF.CreationDate,2026-10-07T18:54:17+02:00*%
%TF.ProjectId,Starbie,53746172-6269-4652-9e6b-696361645f70,rev?*%
%TF.SameCoordinates,Original*%
%TF.FileFunction,Soldermask,Bot*%
%TF.FilePolarity,Negative*%
%FSLAX46Y46*%
G04 Gerber Fmt 4.6, Leading zero omitted, Abs format (unit mm)*
G04 Created by KiCad (PCBNEW 10.0.2) date 2026-10-07 18:54:17*
%MOMM*%
%LPD*%
G01*
G04 APERTURE LIST*
%ADD10C,1.524000*%
%ADD11O,3.800000X2.900000*%
%ADD12R,1.700000X1.700000*%
%ADD13O,1.700000X1.700000*%
%ADD14R,2.000000X2.000000*%
%ADD15C,2.000000*%
%ADD16C,1.400000*%
%ADD17C,1.700000*%
%ADD18R,1.500000X1.500000*%
%ADD19C,1.500000*%
%ADD20R,3.200000X2.000000*%
%ADD21C,4.000000*%
%ADD22C,2.200000*%
%ADD23C,4.500000*%
G04 APERTURE END LIST*
D10*
%TO.C,U2*%
X149040000Y-99760000D03*
X146500000Y-99760000D03*
X143960000Y-99760000D03*
X141420000Y-99760000D03*
X138880000Y-99760000D03*
X136340000Y-99760000D03*
X133800000Y-99760000D03*
X133800000Y-115000000D03*
X136340000Y-115000000D03*
X138880000Y-115000000D03*
X141420000Y-115000000D03*
X143960000Y-115000000D03*
X146500000Y-115000000D03*
X149040000Y-115000000D03*
%TD*%
D11*
%TO.C,J1*%
X111000000Y-119054559D03*
X111000000Y-95940559D03*
X88648000Y-119054559D03*
X88648000Y-95940559D03*
D12*
X103634000Y-119689559D03*
D13*
X101094000Y-119689559D03*
X98554000Y-119689559D03*
X96014000Y-119689559D03*
%TD*%
D14*
%TO.C,BZ1*%
X119700000Y-136000000D03*
D15*
X127300000Y-136000000D03*
%TD*%
D16*
%TO.C,R1*%
X83000000Y-81000000D03*
X75380000Y-81000000D03*
%TD*%
D12*
%TO.C,J2*%
X116500000Y-72000000D03*
D17*
X116500000Y-74540000D03*
X116500000Y-77080000D03*
X116500000Y-79620000D03*
X116500000Y-82160000D03*
X116500000Y-84700000D03*
X116500000Y-87240000D03*
X116500000Y-89780000D03*
%TD*%
D18*
%TO.C,U1*%
X82712500Y-71097500D03*
D19*
X80172500Y-71097500D03*
X77632500Y-71097500D03*
X75092500Y-71097500D03*
%TD*%
D14*
%TO.C,SW5*%
X126000000Y-84000000D03*
D15*
X126000000Y-89000000D03*
X126000000Y-86500000D03*
D20*
X133500000Y-80900000D03*
X133500000Y-92100000D03*
D15*
X140500000Y-89000000D03*
X140500000Y-84000000D03*
%TD*%
D17*
%TO.C,SW3*%
X90840000Y-144500000D03*
D21*
X95920000Y-144500000D03*
D17*
X101000000Y-144500000D03*
D22*
X98460000Y-139420000D03*
X92110000Y-141960000D03*
%TD*%
D23*
%TO.C,H1*%
X100000000Y-59500000D03*
%TD*%
D17*
%TO.C,SW1*%
X60840000Y-96500000D03*
D21*
X65920000Y-96500000D03*
D17*
X71000000Y-96500000D03*
D22*
X68460000Y-91420000D03*
X62110000Y-93960000D03*
%TD*%
D17*
%TO.C,SW2*%
X64840000Y-126000000D03*
D21*
X69920000Y-126000000D03*
D17*
X75000000Y-126000000D03*
D22*
X72460000Y-120920000D03*
X66110000Y-123460000D03*
%TD*%
M02*
