%TF.GenerationSoftware,KiCad,Pcbnew,10.0.2*%
%TF.CreationDate,2026-10-07T18:54:17+02:00*%
%TF.ProjectId,Starbie,53746172-6269-4652-9e6b-696361645f70,rev?*%
%TF.SameCoordinates,Original*%
%TF.FileFunction,Copper,L2,Bot*%
%TF.FilePolarity,Positive*%
%FSLAX46Y46*%
G04 Gerber Fmt 4.6, Leading zero omitted, Abs format (unit mm)*
G04 Created by KiCad (PCBNEW 10.0.2) date 2026-10-07 18:54:17*
%MOMM*%
%LPD*%
G01*
G04 APERTURE LIST*
%TA.AperFunction,ComponentPad*%
%ADD10C,1.524000*%
%TD*%
%TA.AperFunction,ComponentPad*%
%ADD11R,1.700000X1.700000*%
%TD*%
%TA.AperFunction,ComponentPad*%
%ADD12O,1.700000X1.700000*%
%TD*%
%TA.AperFunction,ComponentPad*%
%ADD13R,2.000000X2.000000*%
%TD*%
%TA.AperFunction,ComponentPad*%
%ADD14C,2.000000*%
%TD*%
%TA.AperFunction,ComponentPad*%
%ADD15C,1.400000*%
%TD*%
%TA.AperFunction,ComponentPad*%
%ADD16C,1.700000*%
%TD*%
%TA.AperFunction,ComponentPad*%
%ADD17R,1.500000X1.500000*%
%TD*%
%TA.AperFunction,ComponentPad*%
%ADD18C,1.500000*%
%TD*%
%TA.AperFunction,ComponentPad*%
%ADD19R,3.200000X2.000000*%
%TD*%
%TA.AperFunction,ComponentPad*%
%ADD20C,2.200000*%
%TD*%
%TA.AperFunction,ViaPad*%
%ADD21C,0.600000*%
%TD*%
%TA.AperFunction,Conductor*%
%ADD22C,0.200000*%
%TD*%
G04 APERTURE END LIST*
D10*
%TO.P,U2,1,D0_1*%
%TO.N,/GPIO0*%
X149040000Y-99760000D03*
%TO.P,U2,2,D1_2*%
%TO.N,/DHT11 DATA*%
X146500000Y-99760000D03*
%TO.P,U2,3,D2_3*%
%TO.N,/GPIO2*%
X143960000Y-99760000D03*
%TO.P,U2,4,D3_4*%
%TO.N,/GPIO3*%
X141420000Y-99760000D03*
%TO.P,U2,5,D4_5*%
%TO.N,/SCL*%
X138880000Y-99760000D03*
%TO.P,U2,6,D5_6*%
%TO.N,/SDA*%
X136340000Y-99760000D03*
%TO.P,U2,7,D6_7*%
%TO.N,unconnected-(U2-D6-Pad7)*%
X133800000Y-99760000D03*
%TO.P,U2,8,D7_8*%
%TO.N,unconnected-(U2-D7-Pad8)_1*%
X133800000Y-115000000D03*
%TO.P,U2,9,D8_9*%
%TO.N,/GPIO8*%
X136340000Y-115000000D03*
%TO.P,U2,10,D9/BOOT_10*%
%TO.N,/GPIO9*%
X138880000Y-115000000D03*
%TO.P,U2,11,D10_11*%
%TO.N,/GPIO10*%
X141420000Y-115000000D03*
%TO.P,U2,12,3V3_OUT_12*%
%TO.N,+3.3V*%
X143960000Y-115000000D03*
%TO.P,U2,13,GND_13*%
%TO.N,GND*%
X146500000Y-115000000D03*
%TO.P,U2,14,VBUS_14*%
%TO.N,+5V*%
X149040000Y-115000000D03*
%TD*%
D11*
%TO.P,J1,1,Pin_1_1*%
%TO.N,GND*%
X103634000Y-119689559D03*
D12*
%TO.P,J1,2,Pin_2_2*%
%TO.N,+3.3V*%
X101094000Y-119689559D03*
%TO.P,J1,3,Pin_3_3*%
%TO.N,/SCL*%
X98554000Y-119689559D03*
%TO.P,J1,4,Pin_4_4*%
%TO.N,/SDA*%
X96014000Y-119689559D03*
%TD*%
D13*
%TO.P,BZ1,1,+_1*%
%TO.N,/GPIO8*%
X119700000Y-136000000D03*
D14*
%TO.P,BZ1,2,-_2*%
%TO.N,GND*%
X127300000Y-136000000D03*
%TD*%
D15*
%TO.P,R1,1*%
%TO.N,+3.3V*%
X83000000Y-81000000D03*
%TO.P,R1,2*%
%TO.N,/DHT11 DATA*%
X75380000Y-81000000D03*
%TD*%
D11*
%TO.P,J2,1,Pin_1_1*%
%TO.N,+3.3V*%
X116500000Y-72000000D03*
D16*
%TO.P,J2,2,Pin_2_2*%
%TO.N,GND*%
X116500000Y-74540000D03*
%TO.P,J2,3,Pin_3_3*%
%TO.N,/SCL*%
X116500000Y-77080000D03*
%TO.P,J2,4,Pin_4_4*%
%TO.N,/SDA*%
X116500000Y-79620000D03*
%TO.P,J2,5,Pin_5_5*%
%TO.N,unconnected-(J2-Pin_5-Pad5)*%
X116500000Y-82160000D03*
%TO.P,J2,6,Pin_6_6*%
%TO.N,unconnected-(J2-Pin_6-Pad6)*%
X116500000Y-84700000D03*
%TO.P,J2,7,Pin_7_7*%
%TO.N,unconnected-(J2-Pin_7-Pad7)*%
X116500000Y-87240000D03*
%TO.P,J2,8,Pin_8_8*%
%TO.N,unconnected-(J2-Pin_8-Pad8)*%
X116500000Y-89780000D03*
%TD*%
D17*
%TO.P,U1,1,VDD_1*%
%TO.N,+3.3V*%
X82712500Y-71097500D03*
D18*
%TO.P,U1,2,DATA_2*%
%TO.N,/DHT11 DATA*%
X80172500Y-71097500D03*
%TO.P,U1,3,NC_3*%
%TO.N,unconnected-(U1-NC-Pad3)*%
X77632500Y-71097500D03*
%TO.P,U1,4,GND_4*%
%TO.N,GND*%
X75092500Y-71097500D03*
%TD*%
D13*
%TO.P,SW5,A,A_A*%
%TO.N,/GPIO0*%
X126000000Y-84000000D03*
D14*
%TO.P,SW5,B,B_B*%
%TO.N,/GPIO9*%
X126000000Y-89000000D03*
%TO.P,SW5,C,C_C*%
%TO.N,GND*%
X126000000Y-86500000D03*
D19*
%TO.P,SW5,MP*%
%TO.N,N/C*%
X133500000Y-80900000D03*
X133500000Y-92100000D03*
D14*
%TO.P,SW5,S1*%
X140500000Y-89000000D03*
%TO.P,SW5,S2*%
X140500000Y-84000000D03*
%TD*%
D20*
%TO.P,SW3,1,1_1*%
%TO.N,/GPIO10*%
X98460000Y-139420000D03*
%TO.P,SW3,2,2_2*%
%TO.N,GND*%
X92110000Y-141960000D03*
%TD*%
%TO.P,SW1,1,1_1*%
%TO.N,/GPIO2*%
X68460000Y-91420000D03*
%TO.P,SW1,2,2_2*%
%TO.N,GND*%
X62110000Y-93960000D03*
%TD*%
%TO.P,SW2,1,1_1*%
%TO.N,/GPIO3*%
X72460000Y-120920000D03*
%TO.P,SW2,2,2_2*%
%TO.N,GND*%
X66110000Y-123460000D03*
%TD*%
D21*
%TO.N,/GPIO3*%
X98500000Y-110000000D03*
%TO.N,/SCL*%
X126000000Y-102500000D03*
%TO.N,/SDA*%
X130500000Y-94000000D03*
%TO.N,/GPIO9*%
X133000000Y-106500000D03*
%TD*%
%TO.N,/GPIO0*%
D22*
X126000000Y-84000000D02*
X133280000Y-84000000D01*
X133280000Y-84000000D02*
X149040000Y-99760000D01*
%TO.N,/GPIO2*%
X68460000Y-102215697D02*
X89744303Y-123500000D01*
X68460000Y-91420000D02*
X68460000Y-102215697D01*
X120220000Y-123500000D02*
X143960000Y-99760000D01*
X89744303Y-123500000D02*
X120220000Y-123500000D01*
%TO.N,/GPIO3*%
X131180000Y-110000000D02*
X141420000Y-99760000D01*
X98500000Y-110000000D02*
X131180000Y-110000000D01*
%TO.N,/SCL*%
X92500000Y-101080000D02*
X116500000Y-77080000D01*
X92500000Y-121500000D02*
X92500000Y-101080000D01*
X119000000Y-79580000D02*
X116500000Y-77080000D01*
X98554000Y-119689559D02*
X96743559Y-121500000D01*
X119000000Y-95500000D02*
X119000000Y-79580000D01*
X126000000Y-102500000D02*
X119000000Y-95500000D01*
X96743559Y-121500000D02*
X92500000Y-121500000D01*
%TO.N,/SDA*%
X96014000Y-119689559D02*
X96014000Y-100106000D01*
X96014000Y-100106000D02*
X116500000Y-79620000D01*
X130580000Y-94000000D02*
X136340000Y-99760000D01*
X130500000Y-94000000D02*
X130580000Y-94000000D01*
%TO.N,/GPIO8*%
X136340000Y-122160000D02*
X136340000Y-115000000D01*
X119700000Y-136000000D02*
X122500000Y-136000000D01*
X122500000Y-136000000D02*
X136340000Y-122160000D01*
%TO.N,/GPIO9*%
X126000000Y-89000000D02*
X126000000Y-99500000D01*
X126000000Y-99500000D02*
X133000000Y-106500000D01*
%TO.N,/GPIO10*%
X132580000Y-139420000D02*
X141420000Y-130580000D01*
X98460000Y-139420000D02*
X132580000Y-139420000D01*
X141420000Y-130580000D02*
X141420000Y-115000000D01*
%TO.N,+3.3V*%
X83615000Y-72000000D02*
X82712500Y-71097500D01*
X116500000Y-72000000D02*
X83615000Y-72000000D01*
%TD*%
%TA.AperFunction,Conductor*%
%TO.N,GND*%
G36*
X133046942Y-84620185D02*
G01*
X133067584Y-84636819D01*
X146720306Y-98289542D01*
X146753791Y-98350865D01*
X146748807Y-98420557D01*
X146706935Y-98476490D01*
X146641471Y-98500907D01*
X146613233Y-98499697D01*
X146599361Y-98497500D01*
X146400639Y-98497500D01*
X146335214Y-98507862D01*
X146204362Y-98528587D01*
X146015370Y-98589993D01*
X146015367Y-98589994D01*
X145838305Y-98680213D01*
X145677533Y-98797021D01*
X145537021Y-98937533D01*
X145420213Y-99098305D01*
X145340485Y-99254780D01*
X145292510Y-99305576D01*
X145224689Y-99322371D01*
X145158554Y-99299833D01*
X145119515Y-99254780D01*
X145039786Y-99098305D01*
X144922981Y-98937536D01*
X144782464Y-98797019D01*
X144621694Y-98680213D01*
X144444632Y-98589994D01*
X144444629Y-98589993D01*
X144255637Y-98528587D01*
X144157498Y-98513043D01*
X144059361Y-98497500D01*
X143860639Y-98497500D01*
X143795214Y-98507862D01*
X143664362Y-98528587D01*
X143475370Y-98589993D01*
X143475367Y-98589994D01*
X143298305Y-98680213D01*
X143137533Y-98797021D01*
X142997021Y-98937533D01*
X142880213Y-99098305D01*
X142800485Y-99254780D01*
X142752510Y-99305576D01*
X142684689Y-99322371D01*
X142618554Y-99299833D01*
X142579515Y-99254780D01*
X142499786Y-99098305D01*
X142382981Y-98937536D01*
X142242464Y-98797019D01*
X142081694Y-98680213D01*
X141904632Y-98589994D01*
X141904629Y-98589993D01*
X141715637Y-98528587D01*
X141617498Y-98513043D01*
X141519361Y-98497500D01*
X141320639Y-98497500D01*
X141255214Y-98507862D01*
X141124362Y-98528587D01*
X140935370Y-98589993D01*
X140935367Y-98589994D01*
X140758305Y-98680213D01*
X140597533Y-98797021D01*
X140457021Y-98937533D01*
X140340213Y-99098305D01*
X140260485Y-99254780D01*
X140212510Y-99305576D01*
X140144689Y-99322371D01*
X140078554Y-99299833D01*
X140039515Y-99254780D01*
X139959786Y-99098305D01*
X139842981Y-98937536D01*
X139702464Y-98797019D01*
X139541694Y-98680213D01*
X139364632Y-98589994D01*
X139364629Y-98589993D01*
X139175637Y-98528587D01*
X139077498Y-98513043D01*
X138979361Y-98497500D01*
X138780639Y-98497500D01*
X138715214Y-98507862D01*
X138584362Y-98528587D01*
X138395370Y-98589993D01*
X138395367Y-98589994D01*
X138218305Y-98680213D01*
X138057533Y-98797021D01*
X137917021Y-98937533D01*
X137800213Y-99098305D01*
X137720485Y-99254780D01*
X137672510Y-99305576D01*
X137604689Y-99322371D01*
X137538554Y-99299833D01*
X137499515Y-99254780D01*
X137419786Y-99098305D01*
X137302981Y-98937536D01*
X137162464Y-98797019D01*
X137001694Y-98680213D01*
X136824632Y-98589994D01*
X136824629Y-98589993D01*
X136635637Y-98528587D01*
X136537498Y-98513043D01*
X136439361Y-98497500D01*
X136240639Y-98497500D01*
X136201384Y-98503717D01*
X136044360Y-98528587D01*
X136042087Y-98529133D01*
X136041197Y-98529088D01*
X136039552Y-98529349D01*
X136039497Y-98529003D01*
X135972305Y-98525635D01*
X135925472Y-98496237D01*
X131314708Y-93885473D01*
X131281223Y-93824150D01*
X131280796Y-93822105D01*
X131269737Y-93766503D01*
X131254651Y-93730082D01*
X131209397Y-93620827D01*
X131209390Y-93620814D01*
X131121789Y-93489711D01*
X131121786Y-93489707D01*
X131010292Y-93378213D01*
X131010288Y-93378210D01*
X130879185Y-93290609D01*
X130879172Y-93290602D01*
X130733501Y-93230264D01*
X130733489Y-93230261D01*
X130578845Y-93199500D01*
X130578842Y-93199500D01*
X130421158Y-93199500D01*
X130421155Y-93199500D01*
X130266510Y-93230261D01*
X130266498Y-93230264D01*
X130120827Y-93290602D01*
X130120814Y-93290609D01*
X129989711Y-93378210D01*
X129989707Y-93378213D01*
X129878213Y-93489707D01*
X129878210Y-93489711D01*
X129790609Y-93620814D01*
X129790602Y-93620827D01*
X129730264Y-93766498D01*
X129730261Y-93766510D01*
X129699500Y-93921153D01*
X129699500Y-94078846D01*
X129730261Y-94233489D01*
X129730264Y-94233501D01*
X129790602Y-94379172D01*
X129790609Y-94379185D01*
X129878210Y-94510288D01*
X129878213Y-94510292D01*
X129989707Y-94621786D01*
X129989711Y-94621789D01*
X130120814Y-94709390D01*
X130120827Y-94709397D01*
X130266498Y-94769735D01*
X130266503Y-94769737D01*
X130411511Y-94798581D01*
X130421153Y-94800499D01*
X130421156Y-94800500D01*
X130421158Y-94800500D01*
X130479903Y-94800500D01*
X130546942Y-94820185D01*
X130567584Y-94836819D01*
X134020307Y-98289542D01*
X134053792Y-98350865D01*
X134048808Y-98420557D01*
X134006936Y-98476490D01*
X133941472Y-98500907D01*
X133913232Y-98499697D01*
X133899361Y-98497500D01*
X133700639Y-98497500D01*
X133635214Y-98507862D01*
X133504362Y-98528587D01*
X133315370Y-98589993D01*
X133315367Y-98589994D01*
X133138305Y-98680213D01*
X132977533Y-98797021D01*
X132837021Y-98937533D01*
X132720213Y-99098305D01*
X132629994Y-99275367D01*
X132629993Y-99275370D01*
X132568587Y-99464362D01*
X132537500Y-99660639D01*
X132537500Y-99859360D01*
X132568587Y-100055637D01*
X132629993Y-100244629D01*
X132629994Y-100244632D01*
X132712265Y-100406096D01*
X132720213Y-100421694D01*
X132837019Y-100582464D01*
X132977536Y-100722981D01*
X133138306Y-100839787D01*
X133225149Y-100884035D01*
X133315367Y-100930005D01*
X133315370Y-100930006D01*
X133409866Y-100960709D01*
X133504364Y-100991413D01*
X133700639Y-101022500D01*
X133700640Y-101022500D01*
X133899360Y-101022500D01*
X133899361Y-101022500D01*
X134095636Y-100991413D01*
X134284632Y-100930005D01*
X134461694Y-100839787D01*
X134622464Y-100722981D01*
X134762981Y-100582464D01*
X134879787Y-100421694D01*
X134959515Y-100265218D01*
X135007490Y-100214423D01*
X135075311Y-100197628D01*
X135141446Y-100220165D01*
X135180484Y-100265218D01*
X135260213Y-100421694D01*
X135377019Y-100582464D01*
X135517536Y-100722981D01*
X135678306Y-100839787D01*
X135765149Y-100884035D01*
X135855367Y-100930005D01*
X135855370Y-100930006D01*
X135949866Y-100960709D01*
X136044364Y-100991413D01*
X136240639Y-101022500D01*
X136240640Y-101022500D01*
X136439360Y-101022500D01*
X136439361Y-101022500D01*
X136635636Y-100991413D01*
X136824632Y-100930005D01*
X137001694Y-100839787D01*
X137162464Y-100722981D01*
X137302981Y-100582464D01*
X137419787Y-100421694D01*
X137499515Y-100265218D01*
X137547490Y-100214423D01*
X137615311Y-100197628D01*
X137681446Y-100220165D01*
X137720484Y-100265218D01*
X137800213Y-100421694D01*
X137917019Y-100582464D01*
X138057536Y-100722981D01*
X138218306Y-100839787D01*
X138305149Y-100884035D01*
X138395367Y-100930005D01*
X138395370Y-100930006D01*
X138489866Y-100960709D01*
X138584364Y-100991413D01*
X138780639Y-101022500D01*
X138780640Y-101022500D01*
X138979355Y-101022500D01*
X138979361Y-101022500D01*
X138993228Y-101020303D01*
X139062516Y-101029256D01*
X139115970Y-101074250D01*
X139136612Y-101141001D01*
X139117889Y-101208315D01*
X139100306Y-101230457D01*
X133982641Y-106348123D01*
X133921318Y-106381608D01*
X133851626Y-106376624D01*
X133795693Y-106334752D01*
X133773342Y-106284631D01*
X133769737Y-106266503D01*
X133769735Y-106266498D01*
X133709397Y-106120827D01*
X133709390Y-106120814D01*
X133621789Y-105989711D01*
X133621786Y-105989707D01*
X133510292Y-105878213D01*
X133510288Y-105878210D01*
X133379185Y-105790609D01*
X133379172Y-105790602D01*
X133233501Y-105730264D01*
X133233491Y-105730261D01*
X133078149Y-105699361D01*
X133016238Y-105666976D01*
X133014660Y-105665425D01*
X126636819Y-99287584D01*
X126603334Y-99226261D01*
X126600500Y-99199903D01*
X126600500Y-91052135D01*
X131399500Y-91052135D01*
X131399500Y-93147870D01*
X131399501Y-93147876D01*
X131405908Y-93207483D01*
X131456202Y-93342328D01*
X131456206Y-93342335D01*
X131542452Y-93457544D01*
X131542455Y-93457547D01*
X131657664Y-93543793D01*
X131657671Y-93543797D01*
X131792517Y-93594091D01*
X131792516Y-93594091D01*
X131799444Y-93594835D01*
X131852127Y-93600500D01*
X135147872Y-93600499D01*
X135207483Y-93594091D01*
X135342331Y-93543796D01*
X135457546Y-93457546D01*
X135543796Y-93342331D01*
X135594091Y-93207483D01*
X135600500Y-93147873D01*
X135600499Y-91052128D01*
X135594091Y-90992517D01*
X135572656Y-90935048D01*
X135543797Y-90857671D01*
X135543793Y-90857664D01*
X135457547Y-90742455D01*
X135457544Y-90742452D01*
X135342335Y-90656206D01*
X135342328Y-90656202D01*
X135207482Y-90605908D01*
X135207483Y-90605908D01*
X135147883Y-90599501D01*
X135147881Y-90599500D01*
X135147873Y-90599500D01*
X135147864Y-90599500D01*
X131852129Y-90599500D01*
X131852123Y-90599501D01*
X131792516Y-90605908D01*
X131657671Y-90656202D01*
X131657664Y-90656206D01*
X131542455Y-90742452D01*
X131542452Y-90742455D01*
X131456206Y-90857664D01*
X131456202Y-90857671D01*
X131405908Y-90992517D01*
X131400243Y-91045214D01*
X131399501Y-91052123D01*
X131399500Y-91052135D01*
X126600500Y-91052135D01*
X126600500Y-90454067D01*
X126620185Y-90387028D01*
X126668205Y-90343582D01*
X126786433Y-90283343D01*
X126977510Y-90144517D01*
X127144517Y-89977510D01*
X127283343Y-89786433D01*
X127390568Y-89575992D01*
X127463553Y-89351368D01*
X127477773Y-89261585D01*
X127500500Y-89118097D01*
X127500500Y-88881902D01*
X127463553Y-88648631D01*
X127424501Y-88528443D01*
X127390568Y-88424008D01*
X127390566Y-88424005D01*
X127390566Y-88424003D01*
X127334002Y-88312991D01*
X127283343Y-88213567D01*
X127144517Y-88022490D01*
X126977510Y-87855483D01*
X126921259Y-87814614D01*
X126878595Y-87759284D01*
X126873902Y-87727455D01*
X126129408Y-86982962D01*
X126192993Y-86965925D01*
X126307007Y-86900099D01*
X126400099Y-86807007D01*
X126465925Y-86692993D01*
X126482962Y-86629409D01*
X127222658Y-87369105D01*
X127222658Y-87369104D01*
X127282914Y-87286169D01*
X127282918Y-87286163D01*
X127390102Y-87075802D01*
X127463065Y-86851247D01*
X127500000Y-86618052D01*
X127500000Y-86381947D01*
X127463065Y-86148752D01*
X127390102Y-85924197D01*
X127282914Y-85713828D01*
X127213394Y-85618142D01*
X127189914Y-85552335D01*
X127205739Y-85484281D01*
X127239401Y-85445989D01*
X127242329Y-85443796D01*
X127242331Y-85443796D01*
X127357546Y-85357546D01*
X127443796Y-85242331D01*
X127494091Y-85107483D01*
X127500500Y-85047873D01*
X127500500Y-84724500D01*
X127520185Y-84657461D01*
X127572989Y-84611706D01*
X127624500Y-84600500D01*
X132979903Y-84600500D01*
X133046942Y-84620185D01*
G37*
%TD.AperFunction*%
%TA.AperFunction,Conductor*%
G36*
X100701741Y-55803752D02*
G01*
X102098081Y-55841578D01*
X102101417Y-55841714D01*
X103496191Y-55917336D01*
X103499456Y-55917558D01*
X104891721Y-56030926D01*
X104895038Y-56031241D01*
X106283688Y-56182266D01*
X106286948Y-56182665D01*
X107671050Y-56371246D01*
X107674261Y-56371727D01*
X109052857Y-56597736D01*
X109055971Y-56598291D01*
X110427848Y-56861531D01*
X110431038Y-56862188D01*
X111795245Y-57162472D01*
X111798495Y-57163233D01*
X111890841Y-57186199D01*
X113154044Y-57500344D01*
X113157292Y-57501199D01*
X113630498Y-57632584D01*
X114503180Y-57874883D01*
X114506375Y-57875817D01*
X115812541Y-58276871D01*
X115841670Y-58285815D01*
X115844866Y-58286844D01*
X117168533Y-58732840D01*
X117171701Y-58733955D01*
X118482850Y-59215647D01*
X118485977Y-59216844D01*
X119783588Y-59733860D01*
X119786634Y-59735121D01*
X121069835Y-60287114D01*
X121072850Y-60288460D01*
X121440193Y-60458411D01*
X122340547Y-60874959D01*
X122343577Y-60876410D01*
X123594988Y-61497053D01*
X123597912Y-61498553D01*
X124832054Y-62152854D01*
X124834953Y-62154442D01*
X125817298Y-62709836D01*
X126050881Y-62841898D01*
X126053782Y-62843590D01*
X127250662Y-63563730D01*
X127253515Y-63565500D01*
X128430429Y-64317768D01*
X128433234Y-64319615D01*
X129589344Y-65103477D01*
X129592098Y-65105399D01*
X130726543Y-65920270D01*
X130729244Y-65922265D01*
X131841284Y-66767615D01*
X131843929Y-66769684D01*
X132932610Y-67644791D01*
X132935133Y-67646876D01*
X133999789Y-68551202D01*
X134002246Y-68553347D01*
X134218940Y-68747751D01*
X135042025Y-69486174D01*
X135044494Y-69488451D01*
X136058554Y-70449019D01*
X136060960Y-70451361D01*
X137048638Y-71439039D01*
X137050980Y-71441445D01*
X138011548Y-72455505D01*
X138013825Y-72457974D01*
X138946648Y-73497748D01*
X138948802Y-73500216D01*
X139853117Y-74564858D01*
X139855214Y-74567396D01*
X140235104Y-75040000D01*
X140730315Y-75656070D01*
X140732384Y-75658715D01*
X141577734Y-76770755D01*
X141579729Y-76773456D01*
X142394600Y-77907901D01*
X142396522Y-77910655D01*
X143180384Y-79066765D01*
X143182231Y-79069570D01*
X143934499Y-80246484D01*
X143936269Y-80249337D01*
X144656409Y-81446217D01*
X144658101Y-81449118D01*
X145345544Y-82665023D01*
X145347157Y-82667968D01*
X145394715Y-82757671D01*
X145990744Y-83881902D01*
X146001429Y-83902055D01*
X146002962Y-83905043D01*
X146623589Y-85156423D01*
X146625040Y-85159452D01*
X147211527Y-86427123D01*
X147212896Y-86430189D01*
X147764866Y-87713337D01*
X147766151Y-87716440D01*
X148283151Y-89014013D01*
X148284352Y-89017149D01*
X148766044Y-90328298D01*
X148767159Y-90331466D01*
X149213155Y-91655133D01*
X149214184Y-91658329D01*
X149624178Y-92993610D01*
X149625120Y-92996833D01*
X149998800Y-94342707D01*
X149999655Y-94345955D01*
X150336763Y-95701494D01*
X150337529Y-95704764D01*
X150637801Y-97068912D01*
X150638478Y-97072201D01*
X150769111Y-97752993D01*
X150854048Y-98195646D01*
X150901697Y-98443966D01*
X150902273Y-98447200D01*
X151128258Y-99825648D01*
X151128756Y-99828969D01*
X151317329Y-101213015D01*
X151317737Y-101216348D01*
X151468756Y-102604948D01*
X151469074Y-102608291D01*
X151582438Y-104000500D01*
X151582665Y-104003851D01*
X151658284Y-105398573D01*
X151658421Y-105401928D01*
X151696248Y-106798258D01*
X151696293Y-106801616D01*
X151696293Y-108198383D01*
X151696248Y-108201741D01*
X151658421Y-109598071D01*
X151658284Y-109601426D01*
X151582665Y-110996148D01*
X151582438Y-110999499D01*
X151469074Y-112391708D01*
X151468756Y-112395051D01*
X151317737Y-113783651D01*
X151317329Y-113786984D01*
X151128756Y-115171030D01*
X151128260Y-115174332D01*
X150902275Y-116552787D01*
X150901697Y-116556033D01*
X150638478Y-117927798D01*
X150637801Y-117931087D01*
X150337529Y-119295235D01*
X150336763Y-119298505D01*
X149999655Y-120654044D01*
X149998800Y-120657292D01*
X149625120Y-122003166D01*
X149624178Y-122006389D01*
X149214184Y-123341670D01*
X149213155Y-123344866D01*
X148767159Y-124668533D01*
X148766044Y-124671701D01*
X148284352Y-125982850D01*
X148283151Y-125985986D01*
X147766151Y-127283559D01*
X147764866Y-127286662D01*
X147212896Y-128569810D01*
X147211527Y-128572876D01*
X146625040Y-129840547D01*
X146623589Y-129843576D01*
X146002962Y-131094956D01*
X146001429Y-131097944D01*
X145347157Y-132332031D01*
X145345544Y-132334976D01*
X144658101Y-133550881D01*
X144656409Y-133553782D01*
X143936269Y-134750662D01*
X143934499Y-134753515D01*
X143182231Y-135930429D01*
X143180384Y-135933234D01*
X142396522Y-137089344D01*
X142394600Y-137092098D01*
X141579729Y-138226543D01*
X141577734Y-138229244D01*
X140732384Y-139341284D01*
X140730315Y-139343929D01*
X139855235Y-140432577D01*
X139853096Y-140435166D01*
X138948829Y-141499752D01*
X138946621Y-141502282D01*
X138013825Y-142542025D01*
X138011548Y-142544494D01*
X137050980Y-143558554D01*
X137048638Y-143560960D01*
X136060960Y-144548638D01*
X136058554Y-144550980D01*
X135044494Y-145511548D01*
X135042025Y-145513825D01*
X134002282Y-146446621D01*
X133999752Y-146448829D01*
X132935166Y-147353096D01*
X132932577Y-147355235D01*
X131843929Y-148230315D01*
X131841284Y-148232384D01*
X130729244Y-149077734D01*
X130726543Y-149079729D01*
X129592098Y-149894600D01*
X129589344Y-149896522D01*
X128433234Y-150680384D01*
X128430429Y-150682231D01*
X127253515Y-151434499D01*
X127250662Y-151436269D01*
X126053782Y-152156409D01*
X126050881Y-152158101D01*
X124834976Y-152845544D01*
X124832031Y-152847157D01*
X123597944Y-153501429D01*
X123594956Y-153502962D01*
X122343576Y-154123589D01*
X122340547Y-154125040D01*
X121072876Y-154711527D01*
X121069810Y-154712896D01*
X119786662Y-155264866D01*
X119783559Y-155266151D01*
X118485986Y-155783151D01*
X118482850Y-155784352D01*
X117171701Y-156266044D01*
X117168533Y-156267159D01*
X115844866Y-156713155D01*
X115841670Y-156714184D01*
X114506389Y-157124178D01*
X114503166Y-157125120D01*
X113157292Y-157498800D01*
X113154044Y-157499655D01*
X111798505Y-157836763D01*
X111795235Y-157837529D01*
X110431087Y-158137801D01*
X110427798Y-158138478D01*
X109056033Y-158401697D01*
X109052787Y-158402275D01*
X107674332Y-158628260D01*
X107671030Y-158628756D01*
X106286984Y-158817329D01*
X106283651Y-158817737D01*
X104895051Y-158968756D01*
X104891708Y-158969074D01*
X103499499Y-159082438D01*
X103496148Y-159082665D01*
X102101426Y-159158284D01*
X102098071Y-159158421D01*
X100701741Y-159196248D01*
X100698383Y-159196293D01*
X99301617Y-159196293D01*
X99298259Y-159196248D01*
X97901928Y-159158421D01*
X97898573Y-159158284D01*
X96503851Y-159082665D01*
X96500500Y-159082438D01*
X95108291Y-158969074D01*
X95104948Y-158968756D01*
X93716348Y-158817737D01*
X93713015Y-158817329D01*
X92328969Y-158628756D01*
X92325678Y-158628262D01*
X90947200Y-158402273D01*
X90943966Y-158401697D01*
X89572201Y-158138478D01*
X89568912Y-158137801D01*
X88204764Y-157837529D01*
X88201494Y-157836763D01*
X86845955Y-157499655D01*
X86842707Y-157498800D01*
X85496833Y-157125120D01*
X85493610Y-157124178D01*
X84158329Y-156714184D01*
X84155133Y-156713155D01*
X82831466Y-156267159D01*
X82828298Y-156266044D01*
X81517149Y-155784352D01*
X81514013Y-155783151D01*
X80216440Y-155266151D01*
X80213337Y-155264866D01*
X78930189Y-154712896D01*
X78927123Y-154711527D01*
X77659452Y-154125040D01*
X77656423Y-154123589D01*
X76405043Y-153502962D01*
X76402055Y-153501429D01*
X75167968Y-152847157D01*
X75165023Y-152845544D01*
X73949118Y-152158101D01*
X73946217Y-152156409D01*
X72749337Y-151436269D01*
X72746484Y-151434499D01*
X71569570Y-150682231D01*
X71566765Y-150680384D01*
X70410655Y-149896522D01*
X70407901Y-149894600D01*
X69273456Y-149079729D01*
X69270755Y-149077734D01*
X68158715Y-148232384D01*
X68156070Y-148230315D01*
X67786631Y-147933352D01*
X67067396Y-147355214D01*
X67064858Y-147353117D01*
X66000216Y-146448802D01*
X65997748Y-146446648D01*
X65054586Y-145600500D01*
X64957974Y-145513825D01*
X64955505Y-145511548D01*
X63941445Y-144550980D01*
X63939039Y-144548638D01*
X63803790Y-144413389D01*
X89739500Y-144413389D01*
X89739500Y-144586611D01*
X89766598Y-144757701D01*
X89820127Y-144922445D01*
X89898768Y-145076788D01*
X90000586Y-145216928D01*
X90123072Y-145339414D01*
X90263212Y-145441232D01*
X90417555Y-145519873D01*
X90582299Y-145573402D01*
X90753389Y-145600500D01*
X90753390Y-145600500D01*
X90926610Y-145600500D01*
X90926611Y-145600500D01*
X91097701Y-145573402D01*
X91262445Y-145519873D01*
X91416788Y-145441232D01*
X91556928Y-145339414D01*
X91679414Y-145216928D01*
X91781232Y-145076788D01*
X91859873Y-144922445D01*
X91913402Y-144757701D01*
X91940500Y-144586611D01*
X91940500Y-144413389D01*
X91930854Y-144352486D01*
X93669500Y-144352486D01*
X93669500Y-144647513D01*
X93701571Y-144891113D01*
X93708007Y-144939993D01*
X93782212Y-145216930D01*
X93784361Y-145224951D01*
X93784364Y-145224961D01*
X93897254Y-145497500D01*
X93897258Y-145497510D01*
X94044761Y-145752993D01*
X94224352Y-145987040D01*
X94224358Y-145987047D01*
X94432952Y-146195641D01*
X94432959Y-146195647D01*
X94667006Y-146375238D01*
X94922489Y-146522741D01*
X94922490Y-146522741D01*
X94922493Y-146522743D01*
X95195048Y-146635639D01*
X95480007Y-146711993D01*
X95772494Y-146750500D01*
X95772501Y-146750500D01*
X96067499Y-146750500D01*
X96067506Y-146750500D01*
X96359993Y-146711993D01*
X96644952Y-146635639D01*
X96917507Y-146522743D01*
X97172994Y-146375238D01*
X97407042Y-146195646D01*
X97615646Y-145987042D01*
X97795238Y-145752994D01*
X97942743Y-145497507D01*
X98055639Y-145224952D01*
X98131993Y-144939993D01*
X98170500Y-144647506D01*
X98170500Y-144413389D01*
X99899500Y-144413389D01*
X99899500Y-144586611D01*
X99926598Y-144757701D01*
X99980127Y-144922445D01*
X100058768Y-145076788D01*
X100160586Y-145216928D01*
X100283072Y-145339414D01*
X100423212Y-145441232D01*
X100577555Y-145519873D01*
X100742299Y-145573402D01*
X100913389Y-145600500D01*
X100913390Y-145600500D01*
X101086610Y-145600500D01*
X101086611Y-145600500D01*
X101257701Y-145573402D01*
X101422445Y-145519873D01*
X101576788Y-145441232D01*
X101716928Y-145339414D01*
X101839414Y-145216928D01*
X101941232Y-145076788D01*
X102019873Y-144922445D01*
X102073402Y-144757701D01*
X102100500Y-144586611D01*
X102100500Y-144413389D01*
X102073402Y-144242299D01*
X102019873Y-144077555D01*
X101941232Y-143923212D01*
X101839414Y-143783072D01*
X101716928Y-143660586D01*
X101576788Y-143558768D01*
X101422445Y-143480127D01*
X101257701Y-143426598D01*
X101257699Y-143426597D01*
X101257698Y-143426597D01*
X101126271Y-143405781D01*
X101086611Y-143399500D01*
X100913389Y-143399500D01*
X100873728Y-143405781D01*
X100742302Y-143426597D01*
X100577552Y-143480128D01*
X100423211Y-143558768D01*
X100367115Y-143599525D01*
X100283072Y-143660586D01*
X100283070Y-143660588D01*
X100283069Y-143660588D01*
X100160588Y-143783069D01*
X100160588Y-143783070D01*
X100160586Y-143783072D01*
X100116859Y-143843256D01*
X100058768Y-143923211D01*
X99980128Y-144077552D01*
X99926597Y-144242302D01*
X99899500Y-144413389D01*
X98170500Y-144413389D01*
X98170500Y-144352494D01*
X98131993Y-144060007D01*
X98055639Y-143775048D01*
X97942743Y-143502493D01*
X97892604Y-143415650D01*
X97795238Y-143247006D01*
X97615647Y-143012959D01*
X97615641Y-143012952D01*
X97407047Y-142804358D01*
X97407040Y-142804352D01*
X97172993Y-142624761D01*
X96917510Y-142477258D01*
X96917500Y-142477254D01*
X96644961Y-142364364D01*
X96644954Y-142364362D01*
X96644952Y-142364361D01*
X96359993Y-142288007D01*
X96311113Y-142281571D01*
X96067513Y-142249500D01*
X96067506Y-142249500D01*
X95772494Y-142249500D01*
X95772486Y-142249500D01*
X95494085Y-142286153D01*
X95480007Y-142288007D01*
X95305861Y-142334669D01*
X95195048Y-142364361D01*
X95195038Y-142364364D01*
X94922499Y-142477254D01*
X94922489Y-142477258D01*
X94667006Y-142624761D01*
X94432959Y-142804352D01*
X94432952Y-142804358D01*
X94224358Y-143012952D01*
X94224352Y-143012959D01*
X94044761Y-143247006D01*
X93897258Y-143502489D01*
X93897254Y-143502499D01*
X93784364Y-143775038D01*
X93784361Y-143775048D01*
X93708008Y-144060004D01*
X93708006Y-144060015D01*
X93669500Y-144352486D01*
X91930854Y-144352486D01*
X91913402Y-144242299D01*
X91859873Y-144077555D01*
X91781232Y-143923212D01*
X91679414Y-143783072D01*
X91626882Y-143730540D01*
X91593397Y-143669217D01*
X91598381Y-143599525D01*
X91640253Y-143543592D01*
X91705717Y-143519175D01*
X91733961Y-143520386D01*
X91984072Y-143560000D01*
X92235928Y-143560000D01*
X92484669Y-143520602D01*
X92724184Y-143442780D01*
X92948575Y-143328446D01*
X92948581Y-143328442D01*
X93050697Y-143254250D01*
X93050698Y-143254250D01*
X92434025Y-142637578D01*
X92465258Y-142624641D01*
X92588097Y-142542563D01*
X92692563Y-142438097D01*
X92774641Y-142315258D01*
X92787577Y-142284025D01*
X93404250Y-142900698D01*
X93404250Y-142900697D01*
X93478442Y-142798581D01*
X93478446Y-142798575D01*
X93592780Y-142574184D01*
X93670602Y-142334669D01*
X93710000Y-142085928D01*
X93710000Y-141834071D01*
X93670602Y-141585330D01*
X93592780Y-141345815D01*
X93478442Y-141121416D01*
X93404250Y-141019301D01*
X93404250Y-141019300D01*
X92787577Y-141635973D01*
X92774641Y-141604742D01*
X92692563Y-141481903D01*
X92588097Y-141377437D01*
X92465258Y-141295359D01*
X92434024Y-141282421D01*
X93050698Y-140665748D01*
X92948583Y-140591557D01*
X92724184Y-140477219D01*
X92484669Y-140399397D01*
X92235928Y-140360000D01*
X91984072Y-140360000D01*
X91735330Y-140399397D01*
X91495815Y-140477219D01*
X91271413Y-140591559D01*
X91169301Y-140665747D01*
X91169300Y-140665748D01*
X91785974Y-141282421D01*
X91754742Y-141295359D01*
X91631903Y-141377437D01*
X91527437Y-141481903D01*
X91445359Y-141604742D01*
X91432421Y-141635974D01*
X90815748Y-141019300D01*
X90815747Y-141019301D01*
X90741559Y-141121413D01*
X90627219Y-141345815D01*
X90549397Y-141585330D01*
X90510000Y-141834071D01*
X90510000Y-142085928D01*
X90549397Y-142334669D01*
X90627219Y-142574184D01*
X90741557Y-142798583D01*
X90815748Y-142900697D01*
X90815748Y-142900698D01*
X91432421Y-142284024D01*
X91445359Y-142315258D01*
X91527437Y-142438097D01*
X91631903Y-142542563D01*
X91754742Y-142624641D01*
X91785974Y-142637577D01*
X91169300Y-143254250D01*
X91171598Y-143283449D01*
X91157233Y-143351827D01*
X91108181Y-143401583D01*
X91040016Y-143416921D01*
X91028583Y-143415650D01*
X90926611Y-143399500D01*
X90753389Y-143399500D01*
X90713728Y-143405781D01*
X90582302Y-143426597D01*
X90417552Y-143480128D01*
X90263211Y-143558768D01*
X90207115Y-143599525D01*
X90123072Y-143660586D01*
X90123070Y-143660588D01*
X90123069Y-143660588D01*
X90000588Y-143783069D01*
X90000588Y-143783070D01*
X90000586Y-143783072D01*
X89956859Y-143843256D01*
X89898768Y-143923211D01*
X89820128Y-144077552D01*
X89766597Y-144242302D01*
X89739500Y-144413389D01*
X63803790Y-144413389D01*
X62951361Y-143560960D01*
X62949019Y-143558554D01*
X61988451Y-142544494D01*
X61986174Y-142542025D01*
X61420963Y-141912011D01*
X61267751Y-141741233D01*
X61053347Y-141502246D01*
X61051202Y-141499789D01*
X60146876Y-140435133D01*
X60144791Y-140432610D01*
X59269658Y-139343897D01*
X59267615Y-139341284D01*
X59231700Y-139294038D01*
X96859500Y-139294038D01*
X96859500Y-139545961D01*
X96898910Y-139794785D01*
X96976760Y-140034383D01*
X97091132Y-140258848D01*
X97239201Y-140462649D01*
X97239205Y-140462654D01*
X97417345Y-140640794D01*
X97417350Y-140640798D01*
X97595117Y-140769952D01*
X97621155Y-140788870D01*
X97764184Y-140861747D01*
X97845616Y-140903239D01*
X97845618Y-140903239D01*
X97845621Y-140903241D01*
X98085215Y-140981090D01*
X98334038Y-141020500D01*
X98334039Y-141020500D01*
X98585961Y-141020500D01*
X98585962Y-141020500D01*
X98834785Y-140981090D01*
X99074379Y-140903241D01*
X99298845Y-140788870D01*
X99502656Y-140640793D01*
X99680793Y-140462656D01*
X99828870Y-140258845D01*
X99915815Y-140088204D01*
X99963789Y-140037409D01*
X100026300Y-140020500D01*
X132493331Y-140020500D01*
X132493347Y-140020501D01*
X132500943Y-140020501D01*
X132659054Y-140020501D01*
X132659057Y-140020501D01*
X132811785Y-139979577D01*
X132861904Y-139950639D01*
X132948716Y-139900520D01*
X133060520Y-139788716D01*
X133060520Y-139788714D01*
X133070728Y-139778507D01*
X133070730Y-139778504D01*
X141788713Y-131060521D01*
X141788716Y-131060520D01*
X141900520Y-130948716D01*
X141950639Y-130861904D01*
X141979577Y-130811785D01*
X142020501Y-130659057D01*
X142020501Y-130500943D01*
X142020501Y-130493348D01*
X142020500Y-130493330D01*
X142020500Y-116186730D01*
X142040185Y-116119691D01*
X142077866Y-116082808D01*
X142077752Y-116082651D01*
X142078823Y-116081872D01*
X142079715Y-116081000D01*
X142081690Y-116079789D01*
X142081689Y-116079789D01*
X142081694Y-116079787D01*
X142242464Y-115962981D01*
X142382981Y-115822464D01*
X142499787Y-115661694D01*
X142579515Y-115505218D01*
X142627490Y-115454423D01*
X142695311Y-115437628D01*
X142761446Y-115460165D01*
X142800484Y-115505218D01*
X142880213Y-115661694D01*
X142997019Y-115822464D01*
X143137536Y-115962981D01*
X143298306Y-116079787D01*
X143359500Y-116110967D01*
X143475367Y-116170005D01*
X143475370Y-116170006D01*
X143569866Y-116200709D01*
X143664364Y-116231413D01*
X143860639Y-116262500D01*
X143860640Y-116262500D01*
X144059360Y-116262500D01*
X144059361Y-116262500D01*
X144255636Y-116231413D01*
X144444632Y-116170005D01*
X144621694Y-116079787D01*
X144782464Y-115962981D01*
X144922981Y-115822464D01*
X145039787Y-115661694D01*
X145119796Y-115504667D01*
X145167769Y-115453872D01*
X145235590Y-115437077D01*
X145301725Y-115459614D01*
X145340765Y-115504668D01*
X145420641Y-115661432D01*
X145447730Y-115698715D01*
X145447731Y-115698716D01*
X146062352Y-115084094D01*
X146085792Y-115171571D01*
X146144311Y-115272930D01*
X146227070Y-115355689D01*
X146328429Y-115414208D01*
X146415905Y-115437647D01*
X145801283Y-116052268D01*
X145801283Y-116052269D01*
X145838567Y-116079358D01*
X146015562Y-116169542D01*
X146204477Y-116230924D01*
X146400679Y-116262000D01*
X146599321Y-116262000D01*
X146795520Y-116230924D01*
X146795523Y-116230924D01*
X146984437Y-116169542D01*
X147161425Y-116079362D01*
X147198716Y-116052268D01*
X146584095Y-115437647D01*
X146671571Y-115414208D01*
X146772930Y-115355689D01*
X146855689Y-115272930D01*
X146914208Y-115171571D01*
X146937647Y-115084094D01*
X147552268Y-115698715D01*
X147579364Y-115661422D01*
X147659234Y-115504669D01*
X147707208Y-115453872D01*
X147775029Y-115437077D01*
X147841164Y-115459614D01*
X147880203Y-115504667D01*
X147960213Y-115661694D01*
X148077019Y-115822464D01*
X148217536Y-115962981D01*
X148378306Y-116079787D01*
X148439500Y-116110967D01*
X148555367Y-116170005D01*
X148555370Y-116170006D01*
X148649866Y-116200709D01*
X148744364Y-116231413D01*
X148940639Y-116262500D01*
X148940640Y-116262500D01*
X149139360Y-116262500D01*
X149139361Y-116262500D01*
X149335636Y-116231413D01*
X149524632Y-116170005D01*
X149701694Y-116079787D01*
X149862464Y-115962981D01*
X150002981Y-115822464D01*
X150119787Y-115661694D01*
X150210005Y-115484632D01*
X150271413Y-115295636D01*
X150302500Y-115099361D01*
X150302500Y-114900639D01*
X150271413Y-114704364D01*
X150210005Y-114515368D01*
X150210005Y-114515367D01*
X150164035Y-114425149D01*
X150119787Y-114338306D01*
X150002981Y-114177536D01*
X149862464Y-114037019D01*
X149701694Y-113920213D01*
X149524632Y-113829994D01*
X149524629Y-113829993D01*
X149335637Y-113768587D01*
X149237498Y-113753043D01*
X149139361Y-113737500D01*
X148940639Y-113737500D01*
X148875214Y-113747862D01*
X148744362Y-113768587D01*
X148555370Y-113829993D01*
X148555367Y-113829994D01*
X148378305Y-113920213D01*
X148217533Y-114037021D01*
X148077021Y-114177533D01*
X147960213Y-114338305D01*
X147880204Y-114495331D01*
X147832229Y-114546127D01*
X147764408Y-114562922D01*
X147698273Y-114540384D01*
X147659234Y-114495331D01*
X147579358Y-114338567D01*
X147552268Y-114301283D01*
X146937647Y-114915904D01*
X146914208Y-114828429D01*
X146855689Y-114727070D01*
X146772930Y-114644311D01*
X146671571Y-114585792D01*
X146584094Y-114562352D01*
X147198716Y-113947731D01*
X147198715Y-113947730D01*
X147161432Y-113920641D01*
X146984437Y-113830457D01*
X146795522Y-113769075D01*
X146599321Y-113738000D01*
X146400679Y-113738000D01*
X146204479Y-113769075D01*
X146204476Y-113769075D01*
X146015562Y-113830457D01*
X145838564Y-113920643D01*
X145801283Y-113947729D01*
X145801282Y-113947730D01*
X146415906Y-114562352D01*
X146328429Y-114585792D01*
X146227070Y-114644311D01*
X146144311Y-114727070D01*
X146085792Y-114828429D01*
X146062352Y-114915905D01*
X145447730Y-114301282D01*
X145447729Y-114301283D01*
X145420641Y-114338566D01*
X145340764Y-114495332D01*
X145292790Y-114546127D01*
X145224969Y-114562922D01*
X145158834Y-114540384D01*
X145119796Y-114495332D01*
X145039787Y-114338306D01*
X144922981Y-114177536D01*
X144782464Y-114037019D01*
X144621694Y-113920213D01*
X144444632Y-113829994D01*
X144444629Y-113829993D01*
X144255637Y-113768587D01*
X144157498Y-113753043D01*
X144059361Y-113737500D01*
X143860639Y-113737500D01*
X143795214Y-113747862D01*
X143664362Y-113768587D01*
X143475370Y-113829993D01*
X143475367Y-113829994D01*
X143298305Y-113920213D01*
X143137533Y-114037021D01*
X142997021Y-114177533D01*
X142880213Y-114338305D01*
X142800485Y-114494780D01*
X142752510Y-114545576D01*
X142684689Y-114562371D01*
X142618554Y-114539833D01*
X142579515Y-114494780D01*
X142560179Y-114456832D01*
X142499787Y-114338306D01*
X142382981Y-114177536D01*
X142242464Y-114037019D01*
X142081694Y-113920213D01*
X141904632Y-113829994D01*
X141904629Y-113829993D01*
X141715637Y-113768587D01*
X141617498Y-113753043D01*
X141519361Y-113737500D01*
X141320639Y-113737500D01*
X141255214Y-113747862D01*
X141124362Y-113768587D01*
X140935370Y-113829993D01*
X140935367Y-113829994D01*
X140758305Y-113920213D01*
X140597533Y-114037021D01*
X140457021Y-114177533D01*
X140340213Y-114338305D01*
X140260485Y-114494780D01*
X140212510Y-114545576D01*
X140144689Y-114562371D01*
X140078554Y-114539833D01*
X140039515Y-114494780D01*
X140020179Y-114456832D01*
X139959787Y-114338306D01*
X139842981Y-114177536D01*
X139702464Y-114037019D01*
X139541694Y-113920213D01*
X139364632Y-113829994D01*
X139364629Y-113829993D01*
X139175637Y-113768587D01*
X139077498Y-113753043D01*
X138979361Y-113737500D01*
X138780639Y-113737500D01*
X138715214Y-113747862D01*
X138584362Y-113768587D01*
X138395370Y-113829993D01*
X138395367Y-113829994D01*
X138218305Y-113920213D01*
X138057533Y-114037021D01*
X137917021Y-114177533D01*
X137800213Y-114338305D01*
X137720485Y-114494780D01*
X137672510Y-114545576D01*
X137604689Y-114562371D01*
X137538554Y-114539833D01*
X137499515Y-114494780D01*
X137480179Y-114456832D01*
X137419787Y-114338306D01*
X137302981Y-114177536D01*
X137162464Y-114037019D01*
X137001694Y-113920213D01*
X136824632Y-113829994D01*
X136824629Y-113829993D01*
X136635637Y-113768587D01*
X136537498Y-113753043D01*
X136439361Y-113737500D01*
X136240639Y-113737500D01*
X136175214Y-113747862D01*
X136044362Y-113768587D01*
X135855370Y-113829993D01*
X135855367Y-113829994D01*
X135678305Y-113920213D01*
X135517533Y-114037021D01*
X135377021Y-114177533D01*
X135260213Y-114338305D01*
X135180485Y-114494780D01*
X135132510Y-114545576D01*
X135064689Y-114562371D01*
X134998554Y-114539833D01*
X134959515Y-114494780D01*
X134940179Y-114456832D01*
X134879787Y-114338306D01*
X134762981Y-114177536D01*
X134622464Y-114037019D01*
X134461694Y-113920213D01*
X134284632Y-113829994D01*
X134284629Y-113829993D01*
X134095637Y-113768587D01*
X133997498Y-113753043D01*
X133899361Y-113737500D01*
X133700639Y-113737500D01*
X133635214Y-113747862D01*
X133504362Y-113768587D01*
X133315370Y-113829993D01*
X133315367Y-113829994D01*
X133138305Y-113920213D01*
X132977533Y-114037021D01*
X132837021Y-114177533D01*
X132720213Y-114338305D01*
X132629994Y-114515367D01*
X132629993Y-114515370D01*
X132568587Y-114704362D01*
X132537500Y-114900639D01*
X132537500Y-115099360D01*
X132568587Y-115295637D01*
X132629993Y-115484629D01*
X132629994Y-115484632D01*
X132720074Y-115661422D01*
X132720213Y-115661694D01*
X132837019Y-115822464D01*
X132977536Y-115962981D01*
X133138306Y-116079787D01*
X133199500Y-116110967D01*
X133315367Y-116170005D01*
X133315370Y-116170006D01*
X133409866Y-116200709D01*
X133504364Y-116231413D01*
X133700639Y-116262500D01*
X133700640Y-116262500D01*
X133899360Y-116262500D01*
X133899361Y-116262500D01*
X134095636Y-116231413D01*
X134284632Y-116170005D01*
X134461694Y-116079787D01*
X134622464Y-115962981D01*
X134762981Y-115822464D01*
X134879787Y-115661694D01*
X134959515Y-115505218D01*
X135007490Y-115454423D01*
X135075311Y-115437628D01*
X135141446Y-115460165D01*
X135180484Y-115505218D01*
X135260213Y-115661694D01*
X135377019Y-115822464D01*
X135517536Y-115962981D01*
X135640431Y-116052269D01*
X135678309Y-116079789D01*
X135680285Y-116081000D01*
X135680878Y-116081656D01*
X135682248Y-116082651D01*
X135682039Y-116082938D01*
X135727163Y-116132810D01*
X135739500Y-116186730D01*
X135739500Y-121859902D01*
X135719815Y-121926941D01*
X135703181Y-121947583D01*
X122287584Y-135363181D01*
X122226261Y-135396666D01*
X122199903Y-135399500D01*
X121324499Y-135399500D01*
X121257460Y-135379815D01*
X121211705Y-135327011D01*
X121200499Y-135275500D01*
X121200499Y-134952129D01*
X121200498Y-134952123D01*
X121200497Y-134952116D01*
X121194091Y-134892517D01*
X121143796Y-134757669D01*
X121143795Y-134757668D01*
X121143793Y-134757664D01*
X121057547Y-134642455D01*
X121057544Y-134642452D01*
X120942335Y-134556206D01*
X120942328Y-134556202D01*
X120807482Y-134505908D01*
X120807483Y-134505908D01*
X120747883Y-134499501D01*
X120747881Y-134499500D01*
X120747873Y-134499500D01*
X120747864Y-134499500D01*
X118652129Y-134499500D01*
X118652123Y-134499501D01*
X118592516Y-134505908D01*
X118457671Y-134556202D01*
X118457664Y-134556206D01*
X118342455Y-134642452D01*
X118342452Y-134642455D01*
X118256206Y-134757664D01*
X118256202Y-134757671D01*
X118205908Y-134892517D01*
X118199501Y-134952116D01*
X118199501Y-134952123D01*
X118199500Y-134952135D01*
X118199500Y-137047870D01*
X118199501Y-137047876D01*
X118205908Y-137107483D01*
X118256202Y-137242328D01*
X118256206Y-137242335D01*
X118342452Y-137357544D01*
X118342455Y-137357547D01*
X118457664Y-137443793D01*
X118457671Y-137443797D01*
X118592517Y-137494091D01*
X118592516Y-137494091D01*
X118599444Y-137494835D01*
X118652127Y-137500500D01*
X120747872Y-137500499D01*
X120807483Y-137494091D01*
X120942331Y-137443796D01*
X121057546Y-137357546D01*
X121143796Y-137242331D01*
X121194091Y-137107483D01*
X121200500Y-137047873D01*
X121200500Y-136724500D01*
X121220185Y-136657461D01*
X121272989Y-136611706D01*
X121324500Y-136600500D01*
X122413331Y-136600500D01*
X122413347Y-136600501D01*
X122420943Y-136600501D01*
X122579054Y-136600501D01*
X122579057Y-136600501D01*
X122731785Y-136559577D01*
X122781904Y-136530639D01*
X122868716Y-136480520D01*
X122980520Y-136368716D01*
X122980520Y-136368714D01*
X122990728Y-136358507D01*
X122990729Y-136358504D01*
X123467286Y-135881947D01*
X125800000Y-135881947D01*
X125800000Y-136118052D01*
X125836934Y-136351247D01*
X125909897Y-136575802D01*
X126017087Y-136786174D01*
X126077338Y-136869104D01*
X126077340Y-136869105D01*
X126817037Y-136129408D01*
X126834075Y-136192993D01*
X126899901Y-136307007D01*
X126992993Y-136400099D01*
X127107007Y-136465925D01*
X127170590Y-136482962D01*
X126430893Y-137222658D01*
X126513828Y-137282914D01*
X126724197Y-137390102D01*
X126948752Y-137463065D01*
X126948751Y-137463065D01*
X127181948Y-137500000D01*
X127418052Y-137500000D01*
X127651247Y-137463065D01*
X127875802Y-137390102D01*
X128086163Y-137282918D01*
X128086169Y-137282914D01*
X128169104Y-137222658D01*
X128169105Y-137222658D01*
X127429408Y-136482962D01*
X127492993Y-136465925D01*
X127607007Y-136400099D01*
X127700099Y-136307007D01*
X127765925Y-136192993D01*
X127782962Y-136129409D01*
X128522658Y-136869105D01*
X128522658Y-136869104D01*
X128582914Y-136786169D01*
X128582918Y-136786163D01*
X128690102Y-136575802D01*
X128763065Y-136351247D01*
X128800000Y-136118052D01*
X128800000Y-135881947D01*
X128763065Y-135648752D01*
X128690102Y-135424197D01*
X128582914Y-135213828D01*
X128522658Y-135130894D01*
X128522658Y-135130893D01*
X127782962Y-135870590D01*
X127765925Y-135807007D01*
X127700099Y-135692993D01*
X127607007Y-135599901D01*
X127492993Y-135534075D01*
X127429409Y-135517037D01*
X128169105Y-134777340D01*
X128169104Y-134777338D01*
X128086174Y-134717087D01*
X127875802Y-134609897D01*
X127651247Y-134536934D01*
X127651248Y-134536934D01*
X127418052Y-134500000D01*
X127181948Y-134500000D01*
X126948752Y-134536934D01*
X126724197Y-134609897D01*
X126513830Y-134717084D01*
X126430894Y-134777340D01*
X127170591Y-135517037D01*
X127107007Y-135534075D01*
X126992993Y-135599901D01*
X126899901Y-135692993D01*
X126834075Y-135807007D01*
X126817037Y-135870591D01*
X126077340Y-135130894D01*
X126017084Y-135213830D01*
X125909897Y-135424197D01*
X125836934Y-135648752D01*
X125800000Y-135881947D01*
X123467286Y-135881947D01*
X136820520Y-122528716D01*
X136899577Y-122391784D01*
X136940501Y-122239057D01*
X136940501Y-122080942D01*
X136940501Y-122073347D01*
X136940500Y-122073329D01*
X136940500Y-116186730D01*
X136960185Y-116119691D01*
X136997866Y-116082808D01*
X136997752Y-116082651D01*
X136998823Y-116081872D01*
X136999715Y-116081000D01*
X137001690Y-116079789D01*
X137001689Y-116079789D01*
X137001694Y-116079787D01*
X137162464Y-115962981D01*
X137302981Y-115822464D01*
X137419787Y-115661694D01*
X137499515Y-115505218D01*
X137547490Y-115454423D01*
X137615311Y-115437628D01*
X137681446Y-115460165D01*
X137720484Y-115505218D01*
X137800213Y-115661694D01*
X137917019Y-115822464D01*
X138057536Y-115962981D01*
X138218306Y-116079787D01*
X138279500Y-116110967D01*
X138395367Y-116170005D01*
X138395370Y-116170006D01*
X138489866Y-116200709D01*
X138584364Y-116231413D01*
X138780639Y-116262500D01*
X138780640Y-116262500D01*
X138979360Y-116262500D01*
X138979361Y-116262500D01*
X139175636Y-116231413D01*
X139364632Y-116170005D01*
X139541694Y-116079787D01*
X139702464Y-115962981D01*
X139842981Y-115822464D01*
X139959787Y-115661694D01*
X140039515Y-115505218D01*
X140087490Y-115454423D01*
X140155311Y-115437628D01*
X140221446Y-115460165D01*
X140260484Y-115505218D01*
X140340213Y-115661694D01*
X140457019Y-115822464D01*
X140597536Y-115962981D01*
X140720431Y-116052269D01*
X140758309Y-116079789D01*
X140760285Y-116081000D01*
X140760878Y-116081656D01*
X140762248Y-116082651D01*
X140762039Y-116082938D01*
X140807163Y-116132810D01*
X140819500Y-116186730D01*
X140819500Y-130279903D01*
X140799815Y-130346942D01*
X140783181Y-130367584D01*
X132367584Y-138783181D01*
X132306261Y-138816666D01*
X132279903Y-138819500D01*
X100026300Y-138819500D01*
X99959261Y-138799815D01*
X99915815Y-138751795D01*
X99828870Y-138581155D01*
X99809952Y-138555117D01*
X99680798Y-138377350D01*
X99680794Y-138377345D01*
X99502654Y-138199205D01*
X99502649Y-138199201D01*
X99298848Y-138051132D01*
X99298847Y-138051131D01*
X99298845Y-138051130D01*
X99228747Y-138015413D01*
X99074383Y-137936760D01*
X98834785Y-137858910D01*
X98585962Y-137819500D01*
X98334038Y-137819500D01*
X98209626Y-137839205D01*
X98085214Y-137858910D01*
X97845616Y-137936760D01*
X97621151Y-138051132D01*
X97417350Y-138199201D01*
X97417345Y-138199205D01*
X97239205Y-138377345D01*
X97239201Y-138377350D01*
X97091132Y-138581151D01*
X96976760Y-138805616D01*
X96898910Y-139045214D01*
X96859500Y-139294038D01*
X59231700Y-139294038D01*
X58422265Y-138229244D01*
X58420270Y-138226543D01*
X57605399Y-137092098D01*
X57603477Y-137089344D01*
X56819615Y-135933234D01*
X56817768Y-135930429D01*
X56065500Y-134753515D01*
X56063730Y-134750662D01*
X55343590Y-133553782D01*
X55341898Y-133550881D01*
X54654455Y-132334976D01*
X54652842Y-132332031D01*
X53998553Y-131097912D01*
X53997053Y-131094988D01*
X53376410Y-129843576D01*
X53374959Y-129840547D01*
X52788472Y-128572876D01*
X52787103Y-128569810D01*
X52649746Y-128250500D01*
X52235121Y-127286634D01*
X52233848Y-127283559D01*
X52221669Y-127252993D01*
X51716844Y-125985977D01*
X51715647Y-125982850D01*
X51704048Y-125951278D01*
X51690128Y-125913389D01*
X63739500Y-125913389D01*
X63739500Y-126086611D01*
X63766598Y-126257701D01*
X63820127Y-126422445D01*
X63898768Y-126576788D01*
X64000586Y-126716928D01*
X64123072Y-126839414D01*
X64263212Y-126941232D01*
X64417555Y-127019873D01*
X64582299Y-127073402D01*
X64753389Y-127100500D01*
X64753390Y-127100500D01*
X64926610Y-127100500D01*
X64926611Y-127100500D01*
X65097701Y-127073402D01*
X65262445Y-127019873D01*
X65416788Y-126941232D01*
X65556928Y-126839414D01*
X65679414Y-126716928D01*
X65781232Y-126576788D01*
X65859873Y-126422445D01*
X65913402Y-126257701D01*
X65940500Y-126086611D01*
X65940500Y-125913389D01*
X65930854Y-125852486D01*
X67669500Y-125852486D01*
X67669500Y-126147513D01*
X67695372Y-126344022D01*
X67708007Y-126439993D01*
X67782212Y-126716930D01*
X67784361Y-126724951D01*
X67784364Y-126724961D01*
X67897254Y-126997500D01*
X67897258Y-126997510D01*
X68044761Y-127252993D01*
X68224352Y-127487040D01*
X68224358Y-127487047D01*
X68432952Y-127695641D01*
X68432959Y-127695647D01*
X68667006Y-127875238D01*
X68922489Y-128022741D01*
X68922490Y-128022741D01*
X68922493Y-128022743D01*
X69195048Y-128135639D01*
X69480007Y-128211993D01*
X69772494Y-128250500D01*
X69772501Y-128250500D01*
X70067499Y-128250500D01*
X70067506Y-128250500D01*
X70359993Y-128211993D01*
X70644952Y-128135639D01*
X70917507Y-128022743D01*
X71172994Y-127875238D01*
X71407042Y-127695646D01*
X71615646Y-127487042D01*
X71795238Y-127252994D01*
X71942743Y-126997507D01*
X72055639Y-126724952D01*
X72131993Y-126439993D01*
X72170500Y-126147506D01*
X72170500Y-125913389D01*
X73899500Y-125913389D01*
X73899500Y-126086611D01*
X73926598Y-126257701D01*
X73980127Y-126422445D01*
X74058768Y-126576788D01*
X74160586Y-126716928D01*
X74283072Y-126839414D01*
X74423212Y-126941232D01*
X74577555Y-127019873D01*
X74742299Y-127073402D01*
X74913389Y-127100500D01*
X74913390Y-127100500D01*
X75086610Y-127100500D01*
X75086611Y-127100500D01*
X75257701Y-127073402D01*
X75422445Y-127019873D01*
X75576788Y-126941232D01*
X75716928Y-126839414D01*
X75839414Y-126716928D01*
X75941232Y-126576788D01*
X76019873Y-126422445D01*
X76073402Y-126257701D01*
X76100500Y-126086611D01*
X76100500Y-125913389D01*
X76073402Y-125742299D01*
X76019873Y-125577555D01*
X75941232Y-125423212D01*
X75839414Y-125283072D01*
X75716928Y-125160586D01*
X75576788Y-125058768D01*
X75422445Y-124980127D01*
X75257701Y-124926598D01*
X75257699Y-124926597D01*
X75257698Y-124926597D01*
X75126271Y-124905781D01*
X75086611Y-124899500D01*
X74913389Y-124899500D01*
X74873728Y-124905781D01*
X74742302Y-124926597D01*
X74577552Y-124980128D01*
X74423211Y-125058768D01*
X74367115Y-125099525D01*
X74283072Y-125160586D01*
X74283070Y-125160588D01*
X74283069Y-125160588D01*
X74160588Y-125283069D01*
X74160588Y-125283070D01*
X74160586Y-125283072D01*
X74116859Y-125343256D01*
X74058768Y-125423211D01*
X73980128Y-125577552D01*
X73926597Y-125742302D01*
X73899500Y-125913389D01*
X72170500Y-125913389D01*
X72170500Y-125852494D01*
X72131993Y-125560007D01*
X72055639Y-125275048D01*
X71942743Y-125002493D01*
X71892604Y-124915650D01*
X71795238Y-124747006D01*
X71615647Y-124512959D01*
X71615641Y-124512952D01*
X71407047Y-124304358D01*
X71407040Y-124304352D01*
X71172993Y-124124761D01*
X70917510Y-123977258D01*
X70917500Y-123977254D01*
X70644961Y-123864364D01*
X70644954Y-123864362D01*
X70644952Y-123864361D01*
X70359993Y-123788007D01*
X70311113Y-123781571D01*
X70067513Y-123749500D01*
X70067506Y-123749500D01*
X69772494Y-123749500D01*
X69772486Y-123749500D01*
X69494085Y-123786153D01*
X69480007Y-123788007D01*
X69305861Y-123834669D01*
X69195048Y-123864361D01*
X69195038Y-123864364D01*
X68922499Y-123977254D01*
X68922489Y-123977258D01*
X68667006Y-124124761D01*
X68432959Y-124304352D01*
X68432952Y-124304358D01*
X68224358Y-124512952D01*
X68224352Y-124512959D01*
X68044761Y-124747006D01*
X67897258Y-125002489D01*
X67897254Y-125002499D01*
X67784364Y-125275038D01*
X67784361Y-125275048D01*
X67708008Y-125560004D01*
X67708006Y-125560015D01*
X67669500Y-125852486D01*
X65930854Y-125852486D01*
X65913402Y-125742299D01*
X65859873Y-125577555D01*
X65781232Y-125423212D01*
X65679414Y-125283072D01*
X65626882Y-125230540D01*
X65593397Y-125169217D01*
X65598381Y-125099525D01*
X65640253Y-125043592D01*
X65705717Y-125019175D01*
X65733961Y-125020386D01*
X65984072Y-125060000D01*
X66235928Y-125060000D01*
X66484669Y-125020602D01*
X66724184Y-124942780D01*
X66948575Y-124828446D01*
X66948581Y-124828442D01*
X67050697Y-124754250D01*
X67050698Y-124754250D01*
X66434025Y-124137578D01*
X66465258Y-124124641D01*
X66588097Y-124042563D01*
X66692563Y-123938097D01*
X66774641Y-123815258D01*
X66787577Y-123784025D01*
X67404250Y-124400698D01*
X67404250Y-124400697D01*
X67478442Y-124298581D01*
X67478446Y-124298575D01*
X67592780Y-124074184D01*
X67670602Y-123834669D01*
X67710000Y-123585928D01*
X67710000Y-123334071D01*
X67670602Y-123085330D01*
X67592780Y-122845815D01*
X67478442Y-122621416D01*
X67404250Y-122519301D01*
X67404250Y-122519300D01*
X66787577Y-123135973D01*
X66774641Y-123104742D01*
X66692563Y-122981903D01*
X66588097Y-122877437D01*
X66465258Y-122795359D01*
X66434024Y-122782421D01*
X67050698Y-122165748D01*
X66948583Y-122091557D01*
X66724184Y-121977219D01*
X66484669Y-121899397D01*
X66235928Y-121860000D01*
X65984072Y-121860000D01*
X65735330Y-121899397D01*
X65495815Y-121977219D01*
X65271413Y-122091559D01*
X65169301Y-122165747D01*
X65169300Y-122165748D01*
X65785974Y-122782421D01*
X65754742Y-122795359D01*
X65631903Y-122877437D01*
X65527437Y-122981903D01*
X65445359Y-123104742D01*
X65432421Y-123135974D01*
X64815748Y-122519300D01*
X64815747Y-122519301D01*
X64741559Y-122621413D01*
X64627219Y-122845815D01*
X64549397Y-123085330D01*
X64510000Y-123334071D01*
X64510000Y-123585928D01*
X64549397Y-123834669D01*
X64627219Y-124074184D01*
X64741557Y-124298583D01*
X64815748Y-124400697D01*
X64815748Y-124400698D01*
X65432421Y-123784024D01*
X65445359Y-123815258D01*
X65527437Y-123938097D01*
X65631903Y-124042563D01*
X65754742Y-124124641D01*
X65785974Y-124137577D01*
X65169300Y-124754250D01*
X65171598Y-124783449D01*
X65157233Y-124851827D01*
X65108181Y-124901583D01*
X65040016Y-124916921D01*
X65028583Y-124915650D01*
X64926611Y-124899500D01*
X64753389Y-124899500D01*
X64713728Y-124905781D01*
X64582302Y-124926597D01*
X64417552Y-124980128D01*
X64263211Y-125058768D01*
X64207115Y-125099525D01*
X64123072Y-125160586D01*
X64123070Y-125160588D01*
X64123069Y-125160588D01*
X64000588Y-125283069D01*
X64000588Y-125283070D01*
X64000586Y-125283072D01*
X63956859Y-125343256D01*
X63898768Y-125423211D01*
X63820128Y-125577552D01*
X63766597Y-125742302D01*
X63739500Y-125913389D01*
X51690128Y-125913389D01*
X51673391Y-125867832D01*
X51362055Y-125020386D01*
X51233955Y-124671701D01*
X51232840Y-124668533D01*
X50794908Y-123368798D01*
X50794907Y-123368796D01*
X50786845Y-123344868D01*
X50785815Y-123341670D01*
X50713067Y-123104742D01*
X50375817Y-122006375D01*
X50374879Y-122003166D01*
X50046051Y-120818834D01*
X50039166Y-120794038D01*
X70859500Y-120794038D01*
X70859500Y-121045961D01*
X70898910Y-121294785D01*
X70976760Y-121534383D01*
X71055413Y-121688747D01*
X71077341Y-121731783D01*
X71091132Y-121758848D01*
X71239201Y-121962649D01*
X71239205Y-121962654D01*
X71417345Y-122140794D01*
X71417350Y-122140798D01*
X71552590Y-122239055D01*
X71621155Y-122288870D01*
X71764184Y-122361747D01*
X71845616Y-122403239D01*
X71845618Y-122403239D01*
X71845621Y-122403241D01*
X72085215Y-122481090D01*
X72334038Y-122520500D01*
X72334039Y-122520500D01*
X72585961Y-122520500D01*
X72585962Y-122520500D01*
X72834785Y-122481090D01*
X73074379Y-122403241D01*
X73298845Y-122288870D01*
X73502656Y-122140793D01*
X73680793Y-121962656D01*
X73828870Y-121758845D01*
X73943241Y-121534379D01*
X74021090Y-121294785D01*
X74060500Y-121045962D01*
X74060500Y-120794038D01*
X74021090Y-120545215D01*
X73943241Y-120305621D01*
X73943239Y-120305618D01*
X73943239Y-120305616D01*
X73893486Y-120207971D01*
X73828870Y-120081155D01*
X73725995Y-119939559D01*
X73680798Y-119877350D01*
X73680794Y-119877345D01*
X73502654Y-119699205D01*
X73502649Y-119699201D01*
X73298848Y-119551132D01*
X73298847Y-119551131D01*
X73298845Y-119551130D01*
X73191757Y-119496566D01*
X73074383Y-119436760D01*
X72834785Y-119358910D01*
X72585962Y-119319500D01*
X72334038Y-119319500D01*
X72209626Y-119339205D01*
X72085214Y-119358910D01*
X71845616Y-119436760D01*
X71621151Y-119551132D01*
X71417350Y-119699201D01*
X71417345Y-119699205D01*
X71239205Y-119877345D01*
X71239201Y-119877350D01*
X71091132Y-120081151D01*
X70976760Y-120305616D01*
X70898910Y-120545214D01*
X70859500Y-120794038D01*
X50039166Y-120794038D01*
X50001199Y-120657291D01*
X50000344Y-120654044D01*
X49744117Y-119623733D01*
X49663233Y-119298495D01*
X49662470Y-119295235D01*
X49647650Y-119227908D01*
X49362188Y-117931038D01*
X49361531Y-117927848D01*
X49098291Y-116555971D01*
X49097736Y-116552857D01*
X48871727Y-115174261D01*
X48871243Y-115171030D01*
X48682665Y-113786948D01*
X48682266Y-113783688D01*
X48531241Y-112395038D01*
X48530925Y-112391708D01*
X48422967Y-111065884D01*
X48417558Y-110999456D01*
X48417336Y-110996191D01*
X48341714Y-109601417D01*
X48341578Y-109598071D01*
X48338642Y-109489707D01*
X48303752Y-108201741D01*
X48303707Y-108198383D01*
X48303707Y-106801616D01*
X48303752Y-106798258D01*
X48309773Y-106575983D01*
X48341578Y-105401915D01*
X48341715Y-105398573D01*
X48343838Y-105359423D01*
X48417337Y-104003803D01*
X48417557Y-104000548D01*
X48530926Y-102608271D01*
X48531243Y-102604948D01*
X48533476Y-102584414D01*
X48682267Y-101216302D01*
X48682664Y-101213060D01*
X48871247Y-99828938D01*
X48871725Y-99825749D01*
X49097738Y-98447129D01*
X49098288Y-98444041D01*
X49361534Y-97072136D01*
X49362184Y-97068975D01*
X49506490Y-96413389D01*
X59739500Y-96413389D01*
X59739500Y-96586611D01*
X59766598Y-96757701D01*
X59820127Y-96922445D01*
X59898768Y-97076788D01*
X60000586Y-97216928D01*
X60123072Y-97339414D01*
X60263212Y-97441232D01*
X60417555Y-97519873D01*
X60582299Y-97573402D01*
X60753389Y-97600500D01*
X60753390Y-97600500D01*
X60926610Y-97600500D01*
X60926611Y-97600500D01*
X61097701Y-97573402D01*
X61262445Y-97519873D01*
X61416788Y-97441232D01*
X61556928Y-97339414D01*
X61679414Y-97216928D01*
X61781232Y-97076788D01*
X61859873Y-96922445D01*
X61913402Y-96757701D01*
X61940500Y-96586611D01*
X61940500Y-96413389D01*
X61930854Y-96352486D01*
X63669500Y-96352486D01*
X63669500Y-96647513D01*
X63690247Y-96805094D01*
X63708007Y-96939993D01*
X63782212Y-97216930D01*
X63784361Y-97224951D01*
X63784364Y-97224961D01*
X63897254Y-97497500D01*
X63897258Y-97497510D01*
X64044761Y-97752993D01*
X64224352Y-97987040D01*
X64224358Y-97987047D01*
X64432952Y-98195641D01*
X64432959Y-98195647D01*
X64667006Y-98375238D01*
X64922489Y-98522741D01*
X64922490Y-98522741D01*
X64922493Y-98522743D01*
X65195048Y-98635639D01*
X65480007Y-98711993D01*
X65772494Y-98750500D01*
X65772501Y-98750500D01*
X66067499Y-98750500D01*
X66067506Y-98750500D01*
X66359993Y-98711993D01*
X66644952Y-98635639D01*
X66917507Y-98522743D01*
X67172994Y-98375238D01*
X67407042Y-98195646D01*
X67615646Y-97987042D01*
X67637124Y-97959052D01*
X67693552Y-97917849D01*
X67763298Y-97913694D01*
X67824218Y-97947906D01*
X67856971Y-98009624D01*
X67859500Y-98034538D01*
X67859500Y-102129027D01*
X67859499Y-102129045D01*
X67859499Y-102294751D01*
X67859498Y-102294751D01*
X67900423Y-102447482D01*
X67929358Y-102497597D01*
X67929359Y-102497601D01*
X67929360Y-102497601D01*
X67979479Y-102584411D01*
X67979481Y-102584414D01*
X68098349Y-102703282D01*
X68098355Y-102703287D01*
X89259442Y-123864374D01*
X89259452Y-123864385D01*
X89263782Y-123868715D01*
X89263783Y-123868716D01*
X89375587Y-123980520D01*
X89462398Y-124030639D01*
X89462400Y-124030641D01*
X89500454Y-124052611D01*
X89512518Y-124059577D01*
X89665246Y-124100501D01*
X89665249Y-124100501D01*
X89830956Y-124100501D01*
X89830972Y-124100500D01*
X120133331Y-124100500D01*
X120133347Y-124100501D01*
X120140943Y-124100501D01*
X120299054Y-124100501D01*
X120299057Y-124100501D01*
X120451785Y-124059577D01*
X120501904Y-124030639D01*
X120588716Y-123980520D01*
X120700520Y-123868716D01*
X120700520Y-123868714D01*
X120710728Y-123858507D01*
X120710730Y-123858504D01*
X143545473Y-101023760D01*
X143606794Y-100990277D01*
X143659521Y-100990841D01*
X143659552Y-100990651D01*
X143660843Y-100990855D01*
X143662099Y-100990869D01*
X143664352Y-100991409D01*
X143664364Y-100991413D01*
X143860639Y-101022500D01*
X143860640Y-101022500D01*
X144059360Y-101022500D01*
X144059361Y-101022500D01*
X144255636Y-100991413D01*
X144444632Y-100930005D01*
X144621694Y-100839787D01*
X144782464Y-100722981D01*
X144922981Y-100582464D01*
X145039787Y-100421694D01*
X145119515Y-100265218D01*
X145167490Y-100214423D01*
X145235311Y-100197628D01*
X145301446Y-100220165D01*
X145340484Y-100265218D01*
X145420213Y-100421694D01*
X145537019Y-100582464D01*
X145677536Y-100722981D01*
X145838306Y-100839787D01*
X145925149Y-100884035D01*
X146015367Y-100930005D01*
X146015370Y-100930006D01*
X146109866Y-100960709D01*
X146204364Y-100991413D01*
X146400639Y-101022500D01*
X146400640Y-101022500D01*
X146599360Y-101022500D01*
X146599361Y-101022500D01*
X146795636Y-100991413D01*
X146984632Y-100930005D01*
X147161694Y-100839787D01*
X147322464Y-100722981D01*
X147462981Y-100582464D01*
X147579787Y-100421694D01*
X147659515Y-100265218D01*
X147707490Y-100214423D01*
X147775311Y-100197628D01*
X147841446Y-100220165D01*
X147880484Y-100265218D01*
X147960213Y-100421694D01*
X148077019Y-100582464D01*
X148217536Y-100722981D01*
X148378306Y-100839787D01*
X148465149Y-100884035D01*
X148555367Y-100930005D01*
X148555370Y-100930006D01*
X148649866Y-100960709D01*
X148744364Y-100991413D01*
X148940639Y-101022500D01*
X148940640Y-101022500D01*
X149139360Y-101022500D01*
X149139361Y-101022500D01*
X149335636Y-100991413D01*
X149524632Y-100930005D01*
X149701694Y-100839787D01*
X149862464Y-100722981D01*
X150002981Y-100582464D01*
X150119787Y-100421694D01*
X150210005Y-100244632D01*
X150271413Y-100055636D01*
X150302500Y-99859361D01*
X150302500Y-99660639D01*
X150271413Y-99464364D01*
X150210005Y-99275368D01*
X150210005Y-99275367D01*
X150119786Y-99098305D01*
X150002981Y-98937536D01*
X149862464Y-98797019D01*
X149701694Y-98680213D01*
X149524632Y-98589994D01*
X149524629Y-98589993D01*
X149335637Y-98528587D01*
X149237498Y-98513043D01*
X149139361Y-98497500D01*
X148940639Y-98497500D01*
X148891570Y-98505271D01*
X148744361Y-98528587D01*
X148742088Y-98529133D01*
X148741198Y-98529088D01*
X148739553Y-98529349D01*
X148739498Y-98529003D01*
X148672306Y-98525635D01*
X148625473Y-98496237D01*
X144751022Y-94621786D01*
X140799283Y-90670048D01*
X140765799Y-90608726D01*
X140770783Y-90539034D01*
X140812655Y-90483101D01*
X140848647Y-90464437D01*
X140851368Y-90463553D01*
X141075992Y-90390568D01*
X141286433Y-90283343D01*
X141477510Y-90144517D01*
X141644517Y-89977510D01*
X141783343Y-89786433D01*
X141890568Y-89575992D01*
X141963553Y-89351368D01*
X141977773Y-89261585D01*
X142000500Y-89118097D01*
X142000500Y-88881902D01*
X141963553Y-88648631D01*
X141924501Y-88528443D01*
X141890568Y-88424008D01*
X141890566Y-88424005D01*
X141890566Y-88424003D01*
X141834002Y-88312991D01*
X141783343Y-88213567D01*
X141644517Y-88022490D01*
X141477510Y-87855483D01*
X141286433Y-87716657D01*
X141279917Y-87713337D01*
X141075996Y-87609433D01*
X140851368Y-87536446D01*
X140618097Y-87499500D01*
X140618092Y-87499500D01*
X140381908Y-87499500D01*
X140381903Y-87499500D01*
X140148631Y-87536446D01*
X139924003Y-87609433D01*
X139713566Y-87716657D01*
X139604550Y-87795862D01*
X139522490Y-87855483D01*
X139522488Y-87855485D01*
X139522487Y-87855485D01*
X139355485Y-88022487D01*
X139355485Y-88022488D01*
X139355483Y-88022490D01*
X139295862Y-88104550D01*
X139216657Y-88213566D01*
X139109433Y-88424005D01*
X139109432Y-88424007D01*
X139109432Y-88424008D01*
X139044142Y-88624951D01*
X139035563Y-88651353D01*
X138996125Y-88709029D01*
X138931767Y-88736227D01*
X138862920Y-88724312D01*
X138829951Y-88700716D01*
X134011137Y-83881902D01*
X138999500Y-83881902D01*
X138999500Y-84118097D01*
X139036446Y-84351368D01*
X139109433Y-84575996D01*
X139216657Y-84786433D01*
X139355483Y-84977510D01*
X139522490Y-85144517D01*
X139713567Y-85283343D01*
X139812991Y-85334002D01*
X139924003Y-85390566D01*
X139924005Y-85390566D01*
X139924008Y-85390568D01*
X140044412Y-85429689D01*
X140148631Y-85463553D01*
X140381903Y-85500500D01*
X140381908Y-85500500D01*
X140618097Y-85500500D01*
X140851368Y-85463553D01*
X140905424Y-85445989D01*
X141075992Y-85390568D01*
X141286433Y-85283343D01*
X141477510Y-85144517D01*
X141644517Y-84977510D01*
X141783343Y-84786433D01*
X141890568Y-84575992D01*
X141963553Y-84351368D01*
X142000500Y-84118097D01*
X142000500Y-83881902D01*
X141963553Y-83648631D01*
X141921589Y-83519480D01*
X141890568Y-83424008D01*
X141890566Y-83424005D01*
X141890566Y-83424003D01*
X141783342Y-83213566D01*
X141644517Y-83022490D01*
X141477510Y-82855483D01*
X141286433Y-82716657D01*
X141075996Y-82609433D01*
X140851368Y-82536446D01*
X140618097Y-82499500D01*
X140618092Y-82499500D01*
X140381908Y-82499500D01*
X140381903Y-82499500D01*
X140148631Y-82536446D01*
X139924003Y-82609433D01*
X139713566Y-82716657D01*
X139657119Y-82757669D01*
X139522490Y-82855483D01*
X139522488Y-82855485D01*
X139522487Y-82855485D01*
X139355485Y-83022487D01*
X139355485Y-83022488D01*
X139355483Y-83022490D01*
X139295862Y-83104550D01*
X139216657Y-83213566D01*
X139109433Y-83424003D01*
X139036446Y-83648631D01*
X138999500Y-83881902D01*
X134011137Y-83881902D01*
X133767590Y-83638355D01*
X133767588Y-83638352D01*
X133648717Y-83519481D01*
X133648716Y-83519480D01*
X133561904Y-83469360D01*
X133561904Y-83469359D01*
X133561900Y-83469358D01*
X133511785Y-83440423D01*
X133359057Y-83399499D01*
X133200943Y-83399499D01*
X133193347Y-83399499D01*
X133193331Y-83399500D01*
X127624499Y-83399500D01*
X127557460Y-83379815D01*
X127511705Y-83327011D01*
X127500499Y-83275500D01*
X127500499Y-82952129D01*
X127500498Y-82952123D01*
X127500497Y-82952116D01*
X127494091Y-82892517D01*
X127480278Y-82855483D01*
X127443797Y-82757671D01*
X127443793Y-82757664D01*
X127357547Y-82642455D01*
X127357544Y-82642452D01*
X127242335Y-82556206D01*
X127242328Y-82556202D01*
X127107482Y-82505908D01*
X127107483Y-82505908D01*
X127047883Y-82499501D01*
X127047881Y-82499500D01*
X127047873Y-82499500D01*
X127047864Y-82499500D01*
X124952129Y-82499500D01*
X124952123Y-82499501D01*
X124892516Y-82505908D01*
X124757671Y-82556202D01*
X124757664Y-82556206D01*
X124642455Y-82642452D01*
X124642452Y-82642455D01*
X124556206Y-82757664D01*
X124556202Y-82757671D01*
X124505908Y-82892517D01*
X124499501Y-82952116D01*
X124499501Y-82952123D01*
X124499500Y-82952135D01*
X124499500Y-85047870D01*
X124499501Y-85047876D01*
X124505908Y-85107483D01*
X124556202Y-85242328D01*
X124556206Y-85242335D01*
X124642452Y-85357544D01*
X124642453Y-85357544D01*
X124642454Y-85357546D01*
X124686563Y-85390566D01*
X124760599Y-85445990D01*
X124802469Y-85501924D01*
X124807453Y-85571615D01*
X124786605Y-85618141D01*
X124717087Y-85713824D01*
X124609897Y-85924197D01*
X124536934Y-86148752D01*
X124500000Y-86381947D01*
X124500000Y-86618052D01*
X124536934Y-86851247D01*
X124609897Y-87075802D01*
X124717087Y-87286174D01*
X124777338Y-87369104D01*
X124777340Y-87369105D01*
X125517037Y-86629408D01*
X125534075Y-86692993D01*
X125599901Y-86807007D01*
X125692993Y-86900099D01*
X125807007Y-86965925D01*
X125870590Y-86982962D01*
X125124280Y-87729271D01*
X125115105Y-87772947D01*
X125078739Y-87814615D01*
X125022490Y-87855482D01*
X124855485Y-88022487D01*
X124855485Y-88022488D01*
X124855483Y-88022490D01*
X124795862Y-88104550D01*
X124716657Y-88213566D01*
X124609433Y-88424003D01*
X124536446Y-88648631D01*
X124499500Y-88881902D01*
X124499500Y-89118097D01*
X124536446Y-89351368D01*
X124609433Y-89575996D01*
X124659223Y-89673713D01*
X124716657Y-89786433D01*
X124855483Y-89977510D01*
X125022490Y-90144517D01*
X125165797Y-90248636D01*
X125213568Y-90283344D01*
X125288177Y-90321358D01*
X125331794Y-90343582D01*
X125382590Y-90391556D01*
X125399500Y-90454067D01*
X125399500Y-99413330D01*
X125399499Y-99413348D01*
X125399499Y-99579054D01*
X125399498Y-99579054D01*
X125399499Y-99579057D01*
X125440423Y-99731785D01*
X125440424Y-99731787D01*
X125440423Y-99731787D01*
X125443598Y-99737285D01*
X125443599Y-99737286D01*
X125519477Y-99868712D01*
X125519481Y-99868717D01*
X125638349Y-99987585D01*
X125638355Y-99987590D01*
X132165425Y-106514660D01*
X132198910Y-106575983D01*
X132199361Y-106578149D01*
X132230261Y-106733491D01*
X132230264Y-106733501D01*
X132290602Y-106879172D01*
X132290609Y-106879185D01*
X132378210Y-107010288D01*
X132378213Y-107010292D01*
X132489707Y-107121786D01*
X132489711Y-107121789D01*
X132620814Y-107209390D01*
X132620827Y-107209397D01*
X132766498Y-107269735D01*
X132766503Y-107269737D01*
X132784630Y-107273342D01*
X132846541Y-107305725D01*
X132881118Y-107366440D01*
X132877380Y-107436209D01*
X132848123Y-107482641D01*
X130967584Y-109363181D01*
X130906261Y-109396666D01*
X130879903Y-109399500D01*
X99079766Y-109399500D01*
X99012727Y-109379815D01*
X99010875Y-109378602D01*
X98879185Y-109290609D01*
X98879172Y-109290602D01*
X98733501Y-109230264D01*
X98733489Y-109230261D01*
X98578845Y-109199500D01*
X98578842Y-109199500D01*
X98421158Y-109199500D01*
X98421155Y-109199500D01*
X98266510Y-109230261D01*
X98266498Y-109230264D01*
X98120827Y-109290602D01*
X98120814Y-109290609D01*
X97989711Y-109378210D01*
X97989707Y-109378213D01*
X97878213Y-109489707D01*
X97878210Y-109489711D01*
X97790609Y-109620814D01*
X97790602Y-109620827D01*
X97730264Y-109766498D01*
X97730261Y-109766510D01*
X97699500Y-109921153D01*
X97699500Y-110078846D01*
X97730261Y-110233489D01*
X97730264Y-110233501D01*
X97790602Y-110379172D01*
X97790609Y-110379185D01*
X97878210Y-110510288D01*
X97878213Y-110510292D01*
X97989707Y-110621786D01*
X97989711Y-110621789D01*
X98120814Y-110709390D01*
X98120827Y-110709397D01*
X98266498Y-110769735D01*
X98266503Y-110769737D01*
X98421153Y-110800499D01*
X98421156Y-110800500D01*
X98421158Y-110800500D01*
X98578844Y-110800500D01*
X98578845Y-110800499D01*
X98733497Y-110769737D01*
X98879179Y-110709394D01*
X98879185Y-110709390D01*
X99010875Y-110621398D01*
X99077553Y-110600520D01*
X99079766Y-110600500D01*
X131093331Y-110600500D01*
X131093347Y-110600501D01*
X131100943Y-110600501D01*
X131259054Y-110600501D01*
X131259057Y-110600501D01*
X131411785Y-110559577D01*
X131461904Y-110530639D01*
X131548716Y-110480520D01*
X131660520Y-110368716D01*
X131660520Y-110368714D01*
X131670728Y-110358507D01*
X131670730Y-110358504D01*
X141005473Y-101023760D01*
X141066794Y-100990277D01*
X141119521Y-100990841D01*
X141119552Y-100990651D01*
X141120843Y-100990855D01*
X141122099Y-100990869D01*
X141124352Y-100991409D01*
X141124364Y-100991413D01*
X141320639Y-101022500D01*
X141320640Y-101022500D01*
X141519355Y-101022500D01*
X141519361Y-101022500D01*
X141533228Y-101020303D01*
X141602516Y-101029256D01*
X141655970Y-101074250D01*
X141676612Y-101141001D01*
X141657889Y-101208315D01*
X141640306Y-101230457D01*
X120007584Y-122863181D01*
X119946261Y-122896666D01*
X119919903Y-122899500D01*
X90044400Y-122899500D01*
X89977361Y-122879815D01*
X89956719Y-122863181D01*
X88310278Y-121216740D01*
X88276793Y-121155417D01*
X88281777Y-121085725D01*
X88323649Y-121029792D01*
X88389113Y-121005375D01*
X88397959Y-121005059D01*
X89225836Y-121005059D01*
X89225843Y-121005059D01*
X89479340Y-120971685D01*
X89726313Y-120905509D01*
X89962535Y-120807663D01*
X90183965Y-120679820D01*
X90386813Y-120524169D01*
X90567610Y-120343372D01*
X90723261Y-120140524D01*
X90851104Y-119919094D01*
X90948950Y-119682872D01*
X91015126Y-119435899D01*
X91048500Y-119182402D01*
X91048500Y-118926716D01*
X91015126Y-118673219D01*
X90948950Y-118426246D01*
X90948947Y-118426238D01*
X90948946Y-118426235D01*
X90851105Y-118190027D01*
X90851100Y-118190016D01*
X90723265Y-117968601D01*
X90723261Y-117968594D01*
X90567610Y-117765746D01*
X90567605Y-117765740D01*
X90386818Y-117584953D01*
X90386811Y-117584947D01*
X90183973Y-117429304D01*
X90183971Y-117429302D01*
X90183965Y-117429298D01*
X90183960Y-117429295D01*
X90183957Y-117429293D01*
X89962542Y-117301458D01*
X89962531Y-117301453D01*
X89726322Y-117203612D01*
X89726315Y-117203610D01*
X89726313Y-117203609D01*
X89479340Y-117137433D01*
X89423007Y-117130016D01*
X89225850Y-117104059D01*
X89225843Y-117104059D01*
X88070157Y-117104059D01*
X88070149Y-117104059D01*
X87844826Y-117133724D01*
X87816660Y-117137433D01*
X87569687Y-117203609D01*
X87569677Y-117203612D01*
X87333468Y-117301453D01*
X87333457Y-117301458D01*
X87112042Y-117429293D01*
X87112026Y-117429304D01*
X86909188Y-117584947D01*
X86909181Y-117584953D01*
X86728394Y-117765740D01*
X86728388Y-117765747D01*
X86572745Y-117968585D01*
X86572734Y-117968601D01*
X86444899Y-118190016D01*
X86444894Y-118190027D01*
X86347054Y-118426235D01*
X86347050Y-118426246D01*
X86280874Y-118673220D01*
X86253883Y-118878230D01*
X86225616Y-118942126D01*
X86167292Y-118980597D01*
X86097427Y-118981428D01*
X86043263Y-118949725D01*
X69096819Y-102003281D01*
X69063334Y-101941958D01*
X69060500Y-101915600D01*
X69060500Y-96413389D01*
X69899500Y-96413389D01*
X69899500Y-96586611D01*
X69926598Y-96757701D01*
X69980127Y-96922445D01*
X70058768Y-97076788D01*
X70160586Y-97216928D01*
X70283072Y-97339414D01*
X70423212Y-97441232D01*
X70577555Y-97519873D01*
X70742299Y-97573402D01*
X70913389Y-97600500D01*
X70913390Y-97600500D01*
X71086610Y-97600500D01*
X71086611Y-97600500D01*
X71257701Y-97573402D01*
X71422445Y-97519873D01*
X71576788Y-97441232D01*
X71716928Y-97339414D01*
X71839414Y-97216928D01*
X71941232Y-97076788D01*
X72019873Y-96922445D01*
X72073402Y-96757701D01*
X72100500Y-96586611D01*
X72100500Y-96413389D01*
X72073402Y-96242299D01*
X72019873Y-96077555D01*
X71941232Y-95923212D01*
X71941230Y-95923209D01*
X71941229Y-95923207D01*
X71910960Y-95881546D01*
X71910959Y-95881545D01*
X71860946Y-95812708D01*
X86247500Y-95812708D01*
X86247500Y-96068409D01*
X86270394Y-96242299D01*
X86280874Y-96321899D01*
X86289070Y-96352486D01*
X86347050Y-96568871D01*
X86347053Y-96568881D01*
X86444894Y-96805090D01*
X86444899Y-96805101D01*
X86572734Y-97026516D01*
X86572745Y-97026532D01*
X86728388Y-97229370D01*
X86728394Y-97229377D01*
X86909181Y-97410164D01*
X86909187Y-97410169D01*
X87112035Y-97565820D01*
X87112042Y-97565824D01*
X87333457Y-97693659D01*
X87333462Y-97693661D01*
X87333465Y-97693663D01*
X87569687Y-97791509D01*
X87816660Y-97857685D01*
X88070157Y-97891059D01*
X88070164Y-97891059D01*
X89225836Y-97891059D01*
X89225843Y-97891059D01*
X89479340Y-97857685D01*
X89726313Y-97791509D01*
X89962535Y-97693663D01*
X90183965Y-97565820D01*
X90386813Y-97410169D01*
X90567610Y-97229372D01*
X90723261Y-97026524D01*
X90851104Y-96805094D01*
X90948950Y-96568872D01*
X91015126Y-96321899D01*
X91048500Y-96068402D01*
X91048500Y-95812716D01*
X91015126Y-95559219D01*
X90948950Y-95312246D01*
X90851104Y-95076024D01*
X90851102Y-95076021D01*
X90851100Y-95076016D01*
X90723265Y-94854601D01*
X90723261Y-94854594D01*
X90567610Y-94651746D01*
X90567605Y-94651740D01*
X90386818Y-94470953D01*
X90386811Y-94470947D01*
X90183973Y-94315304D01*
X90183971Y-94315302D01*
X90183965Y-94315298D01*
X90183960Y-94315295D01*
X90183957Y-94315293D01*
X89962542Y-94187458D01*
X89962531Y-94187453D01*
X89726322Y-94089612D01*
X89726315Y-94089610D01*
X89726313Y-94089609D01*
X89479340Y-94023433D01*
X89423007Y-94016016D01*
X89225850Y-93990059D01*
X89225843Y-93990059D01*
X88070157Y-93990059D01*
X88070149Y-93990059D01*
X87844826Y-94019724D01*
X87816660Y-94023433D01*
X87609870Y-94078842D01*
X87569687Y-94089609D01*
X87569677Y-94089612D01*
X87333468Y-94187453D01*
X87333457Y-94187458D01*
X87112042Y-94315293D01*
X87112026Y-94315304D01*
X86909188Y-94470947D01*
X86909181Y-94470953D01*
X86728394Y-94651740D01*
X86728388Y-94651747D01*
X86572745Y-94854585D01*
X86572734Y-94854601D01*
X86444899Y-95076016D01*
X86444894Y-95076027D01*
X86347053Y-95312236D01*
X86347050Y-95312246D01*
X86291222Y-95520602D01*
X86280874Y-95559220D01*
X86247500Y-95812708D01*
X71860946Y-95812708D01*
X71839414Y-95783072D01*
X71716928Y-95660586D01*
X71576788Y-95558768D01*
X71422445Y-95480127D01*
X71257701Y-95426598D01*
X71257699Y-95426597D01*
X71257698Y-95426597D01*
X71126271Y-95405781D01*
X71086611Y-95399500D01*
X70913389Y-95399500D01*
X70873728Y-95405781D01*
X70742302Y-95426597D01*
X70577552Y-95480128D01*
X70423211Y-95558768D01*
X70367115Y-95599525D01*
X70283072Y-95660586D01*
X70283070Y-95660588D01*
X70283069Y-95660588D01*
X70160588Y-95783069D01*
X70160588Y-95783070D01*
X70160586Y-95783072D01*
X70139044Y-95812722D01*
X70058768Y-95923211D01*
X69980128Y-96077552D01*
X69926597Y-96242302D01*
X69899500Y-96413389D01*
X69060500Y-96413389D01*
X69060500Y-92986300D01*
X69080185Y-92919261D01*
X69128204Y-92875815D01*
X69298845Y-92788870D01*
X69502656Y-92640793D01*
X69680793Y-92462656D01*
X69828870Y-92258845D01*
X69943241Y-92034379D01*
X70021090Y-91794785D01*
X70060500Y-91545962D01*
X70060500Y-91294038D01*
X70021090Y-91045215D01*
X69943241Y-90805621D01*
X69943239Y-90805618D01*
X69943239Y-90805616D01*
X69901747Y-90724184D01*
X69828870Y-90581155D01*
X69769114Y-90498908D01*
X69680798Y-90377350D01*
X69680794Y-90377345D01*
X69502654Y-90199205D01*
X69502649Y-90199201D01*
X69298848Y-90051132D01*
X69298847Y-90051131D01*
X69298845Y-90051130D01*
X69190293Y-89995820D01*
X69074383Y-89936760D01*
X68834785Y-89858910D01*
X68585962Y-89819500D01*
X68334038Y-89819500D01*
X68209626Y-89839205D01*
X68085214Y-89858910D01*
X67845616Y-89936760D01*
X67621151Y-90051132D01*
X67417350Y-90199201D01*
X67417345Y-90199205D01*
X67239205Y-90377345D01*
X67239201Y-90377350D01*
X67091132Y-90581151D01*
X66976760Y-90805616D01*
X66898910Y-91045214D01*
X66859500Y-91294038D01*
X66859500Y-91545961D01*
X66898910Y-91794785D01*
X66976760Y-92034383D01*
X67091132Y-92258848D01*
X67239201Y-92462649D01*
X67239205Y-92462654D01*
X67417345Y-92640794D01*
X67417350Y-92640798D01*
X67595117Y-92769952D01*
X67621155Y-92788870D01*
X67791795Y-92875815D01*
X67842591Y-92923789D01*
X67859500Y-92986300D01*
X67859500Y-94965461D01*
X67839815Y-95032500D01*
X67787011Y-95078255D01*
X67717853Y-95088199D01*
X67654297Y-95059174D01*
X67637125Y-95040949D01*
X67615644Y-95012955D01*
X67407047Y-94804358D01*
X67407040Y-94804352D01*
X67172993Y-94624761D01*
X66917510Y-94477258D01*
X66917500Y-94477254D01*
X66644961Y-94364364D01*
X66644954Y-94364362D01*
X66644952Y-94364361D01*
X66359993Y-94288007D01*
X66311113Y-94281571D01*
X66067513Y-94249500D01*
X66067506Y-94249500D01*
X65772494Y-94249500D01*
X65772486Y-94249500D01*
X65494085Y-94286153D01*
X65480007Y-94288007D01*
X65269772Y-94344339D01*
X65195048Y-94364361D01*
X65195038Y-94364364D01*
X64922499Y-94477254D01*
X64922489Y-94477258D01*
X64667006Y-94624761D01*
X64432959Y-94804352D01*
X64432952Y-94804358D01*
X64224358Y-95012952D01*
X64224352Y-95012959D01*
X64044761Y-95247006D01*
X63897258Y-95502489D01*
X63897254Y-95502499D01*
X63784364Y-95775038D01*
X63784362Y-95775043D01*
X63784361Y-95775048D01*
X63727411Y-95987590D01*
X63708008Y-96060004D01*
X63708006Y-96060015D01*
X63669500Y-96352486D01*
X61930854Y-96352486D01*
X61913402Y-96242299D01*
X61859873Y-96077555D01*
X61781232Y-95923212D01*
X61679414Y-95783072D01*
X61626882Y-95730540D01*
X61593397Y-95669217D01*
X61598381Y-95599525D01*
X61640253Y-95543592D01*
X61705717Y-95519175D01*
X61733961Y-95520386D01*
X61984072Y-95560000D01*
X62235928Y-95560000D01*
X62484669Y-95520602D01*
X62724184Y-95442780D01*
X62948575Y-95328446D01*
X62948581Y-95328442D01*
X63050697Y-95254250D01*
X63050698Y-95254250D01*
X62434025Y-94637578D01*
X62465258Y-94624641D01*
X62588097Y-94542563D01*
X62692563Y-94438097D01*
X62774641Y-94315258D01*
X62787577Y-94284025D01*
X63404250Y-94900698D01*
X63404250Y-94900697D01*
X63478442Y-94798581D01*
X63478446Y-94798575D01*
X63592780Y-94574184D01*
X63670602Y-94334669D01*
X63710000Y-94085928D01*
X63710000Y-93834071D01*
X63670602Y-93585330D01*
X63592780Y-93345815D01*
X63478442Y-93121416D01*
X63404250Y-93019301D01*
X63404250Y-93019300D01*
X62787577Y-93635973D01*
X62774641Y-93604742D01*
X62692563Y-93481903D01*
X62588097Y-93377437D01*
X62465258Y-93295359D01*
X62434024Y-93282421D01*
X63050698Y-92665748D01*
X62948583Y-92591557D01*
X62724184Y-92477219D01*
X62484669Y-92399397D01*
X62235928Y-92360000D01*
X61984072Y-92360000D01*
X61735330Y-92399397D01*
X61495815Y-92477219D01*
X61271413Y-92591559D01*
X61169301Y-92665747D01*
X61169300Y-92665748D01*
X61785974Y-93282421D01*
X61754742Y-93295359D01*
X61631903Y-93377437D01*
X61527437Y-93481903D01*
X61445359Y-93604742D01*
X61432421Y-93635974D01*
X60815748Y-93019300D01*
X60815747Y-93019301D01*
X60741559Y-93121413D01*
X60627219Y-93345815D01*
X60549397Y-93585330D01*
X60510000Y-93834071D01*
X60510000Y-94085928D01*
X60549397Y-94334669D01*
X60627219Y-94574184D01*
X60741557Y-94798583D01*
X60815748Y-94900697D01*
X60815748Y-94900698D01*
X61432421Y-94284024D01*
X61445359Y-94315258D01*
X61527437Y-94438097D01*
X61631903Y-94542563D01*
X61754742Y-94624641D01*
X61785974Y-94637577D01*
X61169300Y-95254250D01*
X61171598Y-95283449D01*
X61157233Y-95351827D01*
X61108181Y-95401583D01*
X61040016Y-95416921D01*
X61028583Y-95415650D01*
X60926611Y-95399500D01*
X60753389Y-95399500D01*
X60713728Y-95405781D01*
X60582302Y-95426597D01*
X60417552Y-95480128D01*
X60263211Y-95558768D01*
X60207115Y-95599525D01*
X60123072Y-95660586D01*
X60123070Y-95660588D01*
X60123069Y-95660588D01*
X60000588Y-95783069D01*
X60000588Y-95783070D01*
X60000586Y-95783072D01*
X59979044Y-95812722D01*
X59898768Y-95923211D01*
X59820128Y-96077552D01*
X59766597Y-96242302D01*
X59739500Y-96413389D01*
X49506490Y-96413389D01*
X49662476Y-95704737D01*
X49663236Y-95701494D01*
X49673410Y-95660586D01*
X50000346Y-94345946D01*
X50001199Y-94342707D01*
X50008808Y-94315304D01*
X50374883Y-92996819D01*
X50375811Y-92993643D01*
X50785824Y-91658300D01*
X50786844Y-91655133D01*
X50823629Y-91545961D01*
X51232844Y-90331451D01*
X51233955Y-90328298D01*
X51281381Y-90199207D01*
X51715659Y-89017115D01*
X51716834Y-89014047D01*
X52233870Y-87716385D01*
X52235110Y-87713391D01*
X52787126Y-86430136D01*
X52788448Y-86427176D01*
X53374972Y-85159424D01*
X53376410Y-85156423D01*
X53382315Y-85144517D01*
X53997068Y-83904981D01*
X53998537Y-83902117D01*
X54652871Y-82667914D01*
X54654424Y-82665077D01*
X55341923Y-81449075D01*
X55343564Y-81446260D01*
X55668921Y-80905513D01*
X74179500Y-80905513D01*
X74179500Y-81094486D01*
X74209059Y-81281118D01*
X74267454Y-81460836D01*
X74353240Y-81629199D01*
X74464310Y-81782073D01*
X74597927Y-81915690D01*
X74750801Y-82026760D01*
X74830347Y-82067290D01*
X74919163Y-82112545D01*
X74919165Y-82112545D01*
X74919168Y-82112547D01*
X75010824Y-82142328D01*
X75098881Y-82170940D01*
X75285514Y-82200500D01*
X75285519Y-82200500D01*
X75474486Y-82200500D01*
X75661118Y-82170940D01*
X75840832Y-82112547D01*
X76009199Y-82026760D01*
X76162073Y-81915690D01*
X76295690Y-81782073D01*
X76406760Y-81629199D01*
X76492547Y-81460832D01*
X76550940Y-81281118D01*
X76551084Y-81280208D01*
X76580500Y-81094486D01*
X76580500Y-80905513D01*
X81799500Y-80905513D01*
X81799500Y-81094486D01*
X81829059Y-81281118D01*
X81887454Y-81460836D01*
X81973240Y-81629199D01*
X82084310Y-81782073D01*
X82217927Y-81915690D01*
X82370801Y-82026760D01*
X82450347Y-82067290D01*
X82539163Y-82112545D01*
X82539165Y-82112545D01*
X82539168Y-82112547D01*
X82630824Y-82142328D01*
X82718881Y-82170940D01*
X82905514Y-82200500D01*
X82905519Y-82200500D01*
X83094486Y-82200500D01*
X83281118Y-82170940D01*
X83460832Y-82112547D01*
X83629199Y-82026760D01*
X83782073Y-81915690D01*
X83915690Y-81782073D01*
X84026760Y-81629199D01*
X84112547Y-81460832D01*
X84170940Y-81281118D01*
X84171084Y-81280208D01*
X84200500Y-81094486D01*
X84200500Y-80905513D01*
X84170940Y-80718881D01*
X84112545Y-80539163D01*
X84026759Y-80370800D01*
X83995529Y-80327816D01*
X83915690Y-80217927D01*
X83782073Y-80084310D01*
X83629199Y-79973240D01*
X83460836Y-79887454D01*
X83281118Y-79829059D01*
X83094486Y-79799500D01*
X83094481Y-79799500D01*
X82905519Y-79799500D01*
X82905514Y-79799500D01*
X82718881Y-79829059D01*
X82539163Y-79887454D01*
X82370800Y-79973240D01*
X82283579Y-80036610D01*
X82217927Y-80084310D01*
X82217925Y-80084312D01*
X82217924Y-80084312D01*
X82084312Y-80217924D01*
X82084312Y-80217925D01*
X82084310Y-80217927D01*
X82061489Y-80249337D01*
X81973240Y-80370800D01*
X81887454Y-80539163D01*
X81829059Y-80718881D01*
X81799500Y-80905513D01*
X76580500Y-80905513D01*
X76550940Y-80718881D01*
X76492545Y-80539163D01*
X76406759Y-80370800D01*
X76375529Y-80327816D01*
X76295690Y-80217927D01*
X76162073Y-80084310D01*
X76009199Y-79973240D01*
X75840836Y-79887454D01*
X75661118Y-79829059D01*
X75474486Y-79799500D01*
X75474481Y-79799500D01*
X75285519Y-79799500D01*
X75285514Y-79799500D01*
X75098881Y-79829059D01*
X74919163Y-79887454D01*
X74750800Y-79973240D01*
X74663579Y-80036610D01*
X74597927Y-80084310D01*
X74597925Y-80084312D01*
X74597924Y-80084312D01*
X74464312Y-80217924D01*
X74464312Y-80217925D01*
X74464310Y-80217927D01*
X74441489Y-80249337D01*
X74353240Y-80370800D01*
X74267454Y-80539163D01*
X74209059Y-80718881D01*
X74179500Y-80905513D01*
X55668921Y-80905513D01*
X56063736Y-80249326D01*
X56065500Y-80246484D01*
X56169158Y-80084312D01*
X56817783Y-79069545D01*
X56819615Y-79066765D01*
X57193706Y-78515023D01*
X57603482Y-77910646D01*
X57605399Y-77907901D01*
X57942553Y-77438523D01*
X58420290Y-76773428D01*
X58422244Y-76770782D01*
X59267639Y-75658683D01*
X59269658Y-75656102D01*
X60144821Y-74567352D01*
X60146846Y-74564901D01*
X61051234Y-73500173D01*
X61053315Y-73497789D01*
X61986200Y-72457945D01*
X61988423Y-72455534D01*
X62949055Y-71441407D01*
X62951324Y-71439076D01*
X63391283Y-70999117D01*
X73842500Y-70999117D01*
X73842500Y-71195882D01*
X73873278Y-71390205D01*
X73934081Y-71577335D01*
X74023405Y-71752645D01*
X74048819Y-71787625D01*
X74048820Y-71787625D01*
X74692500Y-71143945D01*
X74692500Y-71150161D01*
X74719759Y-71251894D01*
X74772420Y-71343106D01*
X74846894Y-71417580D01*
X74938106Y-71470241D01*
X75039839Y-71497500D01*
X75046053Y-71497500D01*
X74402373Y-72141177D01*
X74402373Y-72141178D01*
X74437358Y-72166596D01*
X74612664Y-72255918D01*
X74799794Y-72316721D01*
X74994118Y-72347500D01*
X75190882Y-72347500D01*
X75385205Y-72316721D01*
X75572335Y-72255918D01*
X75747643Y-72166595D01*
X75782625Y-72141178D01*
X75782626Y-72141178D01*
X75138948Y-71497500D01*
X75145161Y-71497500D01*
X75246894Y-71470241D01*
X75338106Y-71417580D01*
X75412580Y-71343106D01*
X75465241Y-71251894D01*
X75492500Y-71150161D01*
X75492500Y-71143948D01*
X76136178Y-71787626D01*
X76136178Y-71787625D01*
X76161597Y-71752641D01*
X76251734Y-71575736D01*
X76299708Y-71524939D01*
X76367529Y-71508144D01*
X76433664Y-71530681D01*
X76472704Y-71575735D01*
X76473615Y-71577524D01*
X76473616Y-71577525D01*
X76562976Y-71752905D01*
X76678672Y-71912146D01*
X76817854Y-72051328D01*
X76977095Y-72167024D01*
X77051714Y-72205044D01*
X77152470Y-72256382D01*
X77152472Y-72256382D01*
X77152475Y-72256384D01*
X77252817Y-72288987D01*
X77339673Y-72317209D01*
X77534078Y-72348000D01*
X77534083Y-72348000D01*
X77730922Y-72348000D01*
X77925326Y-72317209D01*
X78005074Y-72291297D01*
X78112525Y-72256384D01*
X78287905Y-72167024D01*
X78447146Y-72051328D01*
X78586328Y-71912146D01*
X78702024Y-71752905D01*
X78791384Y-71577525D01*
X78792015Y-71576287D01*
X78839989Y-71525490D01*
X78907810Y-71508695D01*
X78973945Y-71531232D01*
X79012985Y-71576287D01*
X79102974Y-71752903D01*
X79107317Y-71758880D01*
X79218672Y-71912146D01*
X79357854Y-72051328D01*
X79517095Y-72167024D01*
X79591714Y-72205044D01*
X79692470Y-72256382D01*
X79692472Y-72256382D01*
X79692475Y-72256384D01*
X79792817Y-72288987D01*
X79879673Y-72317209D01*
X80074078Y-72348000D01*
X80074083Y-72348000D01*
X80270922Y-72348000D01*
X80465326Y-72317209D01*
X80545074Y-72291297D01*
X80652525Y-72256384D01*
X80827905Y-72167024D01*
X80987146Y-72051328D01*
X81126328Y-71912146D01*
X81237684Y-71758878D01*
X81293012Y-71716214D01*
X81362625Y-71710235D01*
X81424420Y-71742841D01*
X81458777Y-71803679D01*
X81462000Y-71831763D01*
X81462000Y-71895369D01*
X81462001Y-71895376D01*
X81468408Y-71954983D01*
X81518702Y-72089828D01*
X81518706Y-72089835D01*
X81604952Y-72205044D01*
X81604955Y-72205047D01*
X81720164Y-72291293D01*
X81720171Y-72291297D01*
X81855017Y-72341591D01*
X81855016Y-72341591D01*
X81861944Y-72342335D01*
X81914627Y-72348000D01*
X83062401Y-72347999D01*
X83129440Y-72367684D01*
X83150082Y-72384318D01*
X83246284Y-72480520D01*
X83246286Y-72480521D01*
X83246290Y-72480524D01*
X83383209Y-72559573D01*
X83383216Y-72559577D01*
X83535943Y-72600501D01*
X83535945Y-72600501D01*
X83701654Y-72600501D01*
X83701670Y-72600500D01*
X115025501Y-72600500D01*
X115092540Y-72620185D01*
X115138295Y-72672989D01*
X115149501Y-72724500D01*
X115149501Y-72897876D01*
X115155908Y-72957483D01*
X115206202Y-73092328D01*
X115206206Y-73092335D01*
X115292452Y-73207544D01*
X115292455Y-73207547D01*
X115407664Y-73293793D01*
X115407671Y-73293797D01*
X115452618Y-73310561D01*
X115542517Y-73344091D01*
X115602127Y-73350500D01*
X115612685Y-73350499D01*
X115679723Y-73370179D01*
X115700372Y-73386818D01*
X116370591Y-74057037D01*
X116307007Y-74074075D01*
X116192993Y-74139901D01*
X116099901Y-74232993D01*
X116034075Y-74347007D01*
X116017037Y-74410591D01*
X115384728Y-73778282D01*
X115384727Y-73778282D01*
X115345380Y-73832439D01*
X115248904Y-74021782D01*
X115183242Y-74223869D01*
X115183242Y-74223872D01*
X115150000Y-74433753D01*
X115150000Y-74646246D01*
X115183242Y-74856127D01*
X115183242Y-74856130D01*
X115248904Y-75058217D01*
X115345375Y-75247550D01*
X115384728Y-75301716D01*
X116017037Y-74669408D01*
X116034075Y-74732993D01*
X116099901Y-74847007D01*
X116192993Y-74940099D01*
X116307007Y-75005925D01*
X116370590Y-75022962D01*
X115738282Y-75655269D01*
X115738282Y-75655270D01*
X115792452Y-75694626D01*
X115792451Y-75694626D01*
X115801495Y-75699234D01*
X115852292Y-75747208D01*
X115869087Y-75815029D01*
X115846550Y-75881164D01*
X115801499Y-75920202D01*
X115792182Y-75924949D01*
X115620213Y-76049890D01*
X115469890Y-76200213D01*
X115344951Y-76372179D01*
X115248444Y-76561585D01*
X115182753Y-76763760D01*
X115149500Y-76973713D01*
X115149500Y-77186286D01*
X115182754Y-77396244D01*
X115182754Y-77396247D01*
X115196491Y-77438523D01*
X115198486Y-77508364D01*
X115166241Y-77564522D01*
X92131286Y-100599478D01*
X92019481Y-100711282D01*
X92019479Y-100711285D01*
X91969361Y-100798094D01*
X91969359Y-100798096D01*
X91940425Y-100848209D01*
X91940424Y-100848210D01*
X91940423Y-100848215D01*
X91899499Y-101000943D01*
X91899499Y-101159057D01*
X91899499Y-101159059D01*
X91899500Y-101169053D01*
X91899500Y-121579056D01*
X91940423Y-121731783D01*
X91940426Y-121731790D01*
X92019475Y-121868709D01*
X92019478Y-121868713D01*
X92019480Y-121868716D01*
X92131284Y-121980520D01*
X92131286Y-121980521D01*
X92131290Y-121980524D01*
X92268209Y-122059573D01*
X92268216Y-122059577D01*
X92420943Y-122100500D01*
X96656890Y-122100500D01*
X96656906Y-122100501D01*
X96664502Y-122100501D01*
X96822613Y-122100501D01*
X96822616Y-122100501D01*
X96975344Y-122059577D01*
X97025463Y-122030639D01*
X97112275Y-121980520D01*
X97224079Y-121868716D01*
X97224079Y-121868714D01*
X97234287Y-121858507D01*
X97234289Y-121858504D01*
X98069478Y-121023314D01*
X98130799Y-120989831D01*
X98195473Y-120993065D01*
X98237757Y-121006805D01*
X98447713Y-121040059D01*
X98447714Y-121040059D01*
X98660286Y-121040059D01*
X98660287Y-121040059D01*
X98870243Y-121006805D01*
X99072412Y-120941116D01*
X99261816Y-120844610D01*
X99348478Y-120781647D01*
X99433786Y-120719668D01*
X99433788Y-120719665D01*
X99433792Y-120719663D01*
X99584104Y-120569351D01*
X99584106Y-120569347D01*
X99584109Y-120569345D01*
X99709048Y-120397379D01*
X99709047Y-120397379D01*
X99709051Y-120397375D01*
X99713514Y-120388613D01*
X99761488Y-120337818D01*
X99829308Y-120321022D01*
X99895444Y-120343558D01*
X99934486Y-120388615D01*
X99938951Y-120397379D01*
X100063890Y-120569345D01*
X100214213Y-120719668D01*
X100386179Y-120844607D01*
X100386181Y-120844608D01*
X100386184Y-120844610D01*
X100575588Y-120941116D01*
X100777757Y-121006805D01*
X100987713Y-121040059D01*
X100987714Y-121040059D01*
X101200286Y-121040059D01*
X101200287Y-121040059D01*
X101410243Y-121006805D01*
X101612412Y-120941116D01*
X101801816Y-120844610D01*
X101888478Y-120781647D01*
X101973784Y-120719669D01*
X101973784Y-120719668D01*
X101973792Y-120719663D01*
X102087717Y-120605737D01*
X102149036Y-120572255D01*
X102218728Y-120577239D01*
X102274662Y-120619110D01*
X102291577Y-120650087D01*
X102340646Y-120781647D01*
X102340649Y-120781652D01*
X102426809Y-120896746D01*
X102426812Y-120896749D01*
X102541906Y-120982909D01*
X102541913Y-120982913D01*
X102676620Y-121033155D01*
X102676627Y-121033157D01*
X102736155Y-121039558D01*
X102736172Y-121039559D01*
X103384000Y-121039559D01*
X103384000Y-120122571D01*
X103441007Y-120155484D01*
X103568174Y-120189559D01*
X103699826Y-120189559D01*
X103826993Y-120155484D01*
X103884000Y-120122571D01*
X103884000Y-121039559D01*
X104531828Y-121039559D01*
X104531844Y-121039558D01*
X104591372Y-121033157D01*
X104591379Y-121033155D01*
X104726086Y-120982913D01*
X104726093Y-120982909D01*
X104841187Y-120896749D01*
X104841190Y-120896746D01*
X104927350Y-120781652D01*
X104927354Y-120781645D01*
X104977596Y-120646938D01*
X104977598Y-120646931D01*
X104983999Y-120587403D01*
X104984000Y-120587386D01*
X104984000Y-119939559D01*
X104067012Y-119939559D01*
X104099925Y-119882552D01*
X104134000Y-119755385D01*
X104134000Y-119623733D01*
X104099925Y-119496566D01*
X104067012Y-119439559D01*
X104984000Y-119439559D01*
X104984000Y-118926708D01*
X108599500Y-118926708D01*
X108599500Y-119182409D01*
X108622738Y-119358910D01*
X108632874Y-119435899D01*
X108683204Y-119623733D01*
X108699050Y-119682871D01*
X108699053Y-119682881D01*
X108796894Y-119919090D01*
X108796899Y-119919101D01*
X108924734Y-120140516D01*
X108924745Y-120140532D01*
X109080388Y-120343370D01*
X109080394Y-120343377D01*
X109261181Y-120524164D01*
X109261188Y-120524170D01*
X109320061Y-120569345D01*
X109464035Y-120679820D01*
X109464042Y-120679824D01*
X109685457Y-120807659D01*
X109685462Y-120807661D01*
X109685465Y-120807663D01*
X109921687Y-120905509D01*
X110168660Y-120971685D01*
X110422157Y-121005059D01*
X110422164Y-121005059D01*
X111577836Y-121005059D01*
X111577843Y-121005059D01*
X111831340Y-120971685D01*
X112078313Y-120905509D01*
X112314535Y-120807663D01*
X112535965Y-120679820D01*
X112738813Y-120524169D01*
X112919610Y-120343372D01*
X113075261Y-120140524D01*
X113203104Y-119919094D01*
X113300950Y-119682872D01*
X113367126Y-119435899D01*
X113400500Y-119182402D01*
X113400500Y-118926716D01*
X113367126Y-118673219D01*
X113300950Y-118426246D01*
X113300947Y-118426238D01*
X113300946Y-118426235D01*
X113203105Y-118190027D01*
X113203100Y-118190016D01*
X113075265Y-117968601D01*
X113075261Y-117968594D01*
X112919610Y-117765746D01*
X112919605Y-117765740D01*
X112738818Y-117584953D01*
X112738811Y-117584947D01*
X112535973Y-117429304D01*
X112535971Y-117429302D01*
X112535965Y-117429298D01*
X112535960Y-117429295D01*
X112535957Y-117429293D01*
X112314542Y-117301458D01*
X112314531Y-117301453D01*
X112078322Y-117203612D01*
X112078315Y-117203610D01*
X112078313Y-117203609D01*
X111831340Y-117137433D01*
X111775007Y-117130016D01*
X111577850Y-117104059D01*
X111577843Y-117104059D01*
X110422157Y-117104059D01*
X110422149Y-117104059D01*
X110196826Y-117133724D01*
X110168660Y-117137433D01*
X109921687Y-117203609D01*
X109921677Y-117203612D01*
X109685468Y-117301453D01*
X109685457Y-117301458D01*
X109464042Y-117429293D01*
X109464026Y-117429304D01*
X109261188Y-117584947D01*
X109261181Y-117584953D01*
X109080394Y-117765740D01*
X109080388Y-117765747D01*
X108924745Y-117968585D01*
X108924734Y-117968601D01*
X108796899Y-118190016D01*
X108796894Y-118190027D01*
X108699054Y-118426235D01*
X108699050Y-118426246D01*
X108632874Y-118673220D01*
X108599500Y-118926708D01*
X104984000Y-118926708D01*
X104984000Y-118791731D01*
X104983999Y-118791714D01*
X104977598Y-118732186D01*
X104977596Y-118732179D01*
X104927354Y-118597472D01*
X104927350Y-118597465D01*
X104841190Y-118482371D01*
X104841187Y-118482368D01*
X104726093Y-118396208D01*
X104726086Y-118396204D01*
X104591379Y-118345962D01*
X104591372Y-118345960D01*
X104531844Y-118339559D01*
X103884000Y-118339559D01*
X103884000Y-119256547D01*
X103826993Y-119223634D01*
X103699826Y-119189559D01*
X103568174Y-119189559D01*
X103441007Y-119223634D01*
X103384000Y-119256547D01*
X103384000Y-118339559D01*
X102736155Y-118339559D01*
X102676627Y-118345960D01*
X102676620Y-118345962D01*
X102541913Y-118396204D01*
X102541906Y-118396208D01*
X102426812Y-118482368D01*
X102426809Y-118482371D01*
X102340649Y-118597465D01*
X102340646Y-118597471D01*
X102291577Y-118729030D01*
X102249705Y-118784963D01*
X102184241Y-118809380D01*
X102115968Y-118794528D01*
X102087714Y-118773377D01*
X101973786Y-118659449D01*
X101801820Y-118534510D01*
X101612414Y-118438003D01*
X101612413Y-118438002D01*
X101612412Y-118438002D01*
X101410243Y-118372313D01*
X101410241Y-118372312D01*
X101410240Y-118372312D01*
X101248957Y-118346767D01*
X101200287Y-118339059D01*
X100987713Y-118339059D01*
X100939042Y-118346767D01*
X100777760Y-118372312D01*
X100575585Y-118438003D01*
X100386179Y-118534510D01*
X100214213Y-118659449D01*
X100063890Y-118809772D01*
X99938949Y-118981741D01*
X99934484Y-118990505D01*
X99886509Y-119041301D01*
X99818688Y-119058095D01*
X99752553Y-119035557D01*
X99713516Y-118990505D01*
X99709050Y-118981741D01*
X99584109Y-118809772D01*
X99433786Y-118659449D01*
X99261820Y-118534510D01*
X99072414Y-118438003D01*
X99072413Y-118438002D01*
X99072412Y-118438002D01*
X98870243Y-118372313D01*
X98870241Y-118372312D01*
X98870240Y-118372312D01*
X98708957Y-118346767D01*
X98660287Y-118339059D01*
X98447713Y-118339059D01*
X98399042Y-118346767D01*
X98237760Y-118372312D01*
X98035585Y-118438003D01*
X97846179Y-118534510D01*
X97674213Y-118659449D01*
X97523890Y-118809772D01*
X97398949Y-118981741D01*
X97394484Y-118990505D01*
X97346509Y-119041301D01*
X97278688Y-119058095D01*
X97212553Y-119035557D01*
X97173516Y-118990505D01*
X97169050Y-118981741D01*
X97044109Y-118809772D01*
X96893786Y-118659449D01*
X96721815Y-118534507D01*
X96721814Y-118534506D01*
X96682205Y-118514324D01*
X96631409Y-118466350D01*
X96614500Y-118403840D01*
X96614500Y-100406096D01*
X96634185Y-100339057D01*
X96650814Y-100318420D01*
X101156526Y-95812708D01*
X108599500Y-95812708D01*
X108599500Y-96068409D01*
X108622394Y-96242299D01*
X108632874Y-96321899D01*
X108641070Y-96352486D01*
X108699050Y-96568871D01*
X108699053Y-96568881D01*
X108796894Y-96805090D01*
X108796899Y-96805101D01*
X108924734Y-97026516D01*
X108924745Y-97026532D01*
X109080388Y-97229370D01*
X109080394Y-97229377D01*
X109261181Y-97410164D01*
X109261187Y-97410169D01*
X109464035Y-97565820D01*
X109464042Y-97565824D01*
X109685457Y-97693659D01*
X109685462Y-97693661D01*
X109685465Y-97693663D01*
X109921687Y-97791509D01*
X110168660Y-97857685D01*
X110422157Y-97891059D01*
X110422164Y-97891059D01*
X111577836Y-97891059D01*
X111577843Y-97891059D01*
X111831340Y-97857685D01*
X112078313Y-97791509D01*
X112314535Y-97693663D01*
X112535965Y-97565820D01*
X112738813Y-97410169D01*
X112919610Y-97229372D01*
X113075261Y-97026524D01*
X113203104Y-96805094D01*
X113300950Y-96568872D01*
X113367126Y-96321899D01*
X113400500Y-96068402D01*
X113400500Y-95812716D01*
X113367126Y-95559219D01*
X113300950Y-95312246D01*
X113203104Y-95076024D01*
X113203102Y-95076021D01*
X113203100Y-95076016D01*
X113075265Y-94854601D01*
X113075261Y-94854594D01*
X112919610Y-94651746D01*
X112919605Y-94651740D01*
X112738818Y-94470953D01*
X112738811Y-94470947D01*
X112535973Y-94315304D01*
X112535971Y-94315302D01*
X112535965Y-94315298D01*
X112535960Y-94315295D01*
X112535957Y-94315293D01*
X112314542Y-94187458D01*
X112314531Y-94187453D01*
X112078322Y-94089612D01*
X112078315Y-94089610D01*
X112078313Y-94089609D01*
X111831340Y-94023433D01*
X111775007Y-94016016D01*
X111577850Y-93990059D01*
X111577843Y-93990059D01*
X110422157Y-93990059D01*
X110422149Y-93990059D01*
X110196826Y-94019724D01*
X110168660Y-94023433D01*
X109961870Y-94078842D01*
X109921687Y-94089609D01*
X109921677Y-94089612D01*
X109685468Y-94187453D01*
X109685457Y-94187458D01*
X109464042Y-94315293D01*
X109464026Y-94315304D01*
X109261188Y-94470947D01*
X109261181Y-94470953D01*
X109080394Y-94651740D01*
X109080388Y-94651747D01*
X108924745Y-94854585D01*
X108924734Y-94854601D01*
X108796899Y-95076016D01*
X108796894Y-95076027D01*
X108699053Y-95312236D01*
X108699050Y-95312246D01*
X108643222Y-95520602D01*
X108632874Y-95559220D01*
X108599500Y-95812708D01*
X101156526Y-95812708D01*
X114937819Y-82031414D01*
X114999142Y-81997930D01*
X115068834Y-82002914D01*
X115124767Y-82044786D01*
X115149184Y-82110250D01*
X115149500Y-82119096D01*
X115149500Y-82266287D01*
X115182754Y-82476243D01*
X115236759Y-82642454D01*
X115248444Y-82678414D01*
X115344951Y-82867820D01*
X115469890Y-83039786D01*
X115620213Y-83190109D01*
X115792182Y-83315050D01*
X115800946Y-83319516D01*
X115851742Y-83367491D01*
X115868536Y-83435312D01*
X115845998Y-83501447D01*
X115800946Y-83540484D01*
X115792182Y-83544949D01*
X115620213Y-83669890D01*
X115469890Y-83820213D01*
X115344951Y-83992179D01*
X115248444Y-84181585D01*
X115182753Y-84383760D01*
X115149500Y-84593713D01*
X115149500Y-84806286D01*
X115176619Y-84977512D01*
X115182754Y-85016243D01*
X115228301Y-85156423D01*
X115248444Y-85218414D01*
X115344951Y-85407820D01*
X115469890Y-85579786D01*
X115620213Y-85730109D01*
X115792182Y-85855050D01*
X115800946Y-85859516D01*
X115851742Y-85907491D01*
X115868536Y-85975312D01*
X115845998Y-86041447D01*
X115800946Y-86080484D01*
X115792182Y-86084949D01*
X115620213Y-86209890D01*
X115469890Y-86360213D01*
X115344951Y-86532179D01*
X115248444Y-86721585D01*
X115182753Y-86923760D01*
X115149500Y-87133713D01*
X115149500Y-87346286D01*
X115179618Y-87536447D01*
X115182754Y-87556243D01*
X115238974Y-87729271D01*
X115248444Y-87758414D01*
X115344951Y-87947820D01*
X115469890Y-88119786D01*
X115620213Y-88270109D01*
X115792182Y-88395050D01*
X115800946Y-88399516D01*
X115851742Y-88447491D01*
X115868536Y-88515312D01*
X115845998Y-88581447D01*
X115800946Y-88620484D01*
X115792182Y-88624949D01*
X115620213Y-88749890D01*
X115469890Y-88900213D01*
X115344951Y-89072179D01*
X115248444Y-89261585D01*
X115182753Y-89463760D01*
X115149500Y-89673713D01*
X115149500Y-89886286D01*
X115175608Y-90051130D01*
X115182754Y-90096243D01*
X115243546Y-90283342D01*
X115248444Y-90298414D01*
X115344951Y-90487820D01*
X115469890Y-90659786D01*
X115620213Y-90810109D01*
X115792179Y-90935048D01*
X115792181Y-90935049D01*
X115792184Y-90935051D01*
X115981588Y-91031557D01*
X116183757Y-91097246D01*
X116393713Y-91130500D01*
X116393714Y-91130500D01*
X116606286Y-91130500D01*
X116606287Y-91130500D01*
X116816243Y-91097246D01*
X117018412Y-91031557D01*
X117207816Y-90935051D01*
X117229789Y-90919086D01*
X117379786Y-90810109D01*
X117379788Y-90810106D01*
X117379792Y-90810104D01*
X117530104Y-90659792D01*
X117530106Y-90659788D01*
X117530109Y-90659786D01*
X117655048Y-90487820D01*
X117655047Y-90487820D01*
X117655051Y-90487816D01*
X117751557Y-90298412D01*
X117817246Y-90096243D01*
X117850500Y-89886287D01*
X117850500Y-89673713D01*
X117817246Y-89463757D01*
X117751557Y-89261588D01*
X117655051Y-89072184D01*
X117655049Y-89072181D01*
X117655048Y-89072179D01*
X117530109Y-88900213D01*
X117379786Y-88749890D01*
X117207820Y-88624951D01*
X117207115Y-88624591D01*
X117199054Y-88620485D01*
X117148259Y-88572512D01*
X117131463Y-88504692D01*
X117153999Y-88438556D01*
X117199054Y-88399515D01*
X117207816Y-88395051D01*
X117229789Y-88379086D01*
X117379786Y-88270109D01*
X117379788Y-88270106D01*
X117379792Y-88270104D01*
X117530104Y-88119792D01*
X117530106Y-88119788D01*
X117530109Y-88119786D01*
X117655048Y-87947820D01*
X117655047Y-87947820D01*
X117655051Y-87947816D01*
X117751557Y-87758412D01*
X117817246Y-87556243D01*
X117850500Y-87346287D01*
X117850500Y-87133713D01*
X117817246Y-86923757D01*
X117751557Y-86721588D01*
X117655051Y-86532184D01*
X117655049Y-86532181D01*
X117655048Y-86532179D01*
X117530109Y-86360213D01*
X117379786Y-86209890D01*
X117207820Y-86084951D01*
X117207115Y-86084591D01*
X117199054Y-86080485D01*
X117148259Y-86032512D01*
X117131463Y-85964692D01*
X117153999Y-85898556D01*
X117199054Y-85859515D01*
X117207816Y-85855051D01*
X117229789Y-85839086D01*
X117379786Y-85730109D01*
X117379788Y-85730106D01*
X117379792Y-85730104D01*
X117530104Y-85579792D01*
X117530106Y-85579788D01*
X117530109Y-85579786D01*
X117655048Y-85407820D01*
X117655047Y-85407820D01*
X117655051Y-85407816D01*
X117751557Y-85218412D01*
X117817246Y-85016243D01*
X117850500Y-84806287D01*
X117850500Y-84593713D01*
X117817246Y-84383757D01*
X117751557Y-84181588D01*
X117655051Y-83992184D01*
X117655049Y-83992181D01*
X117655048Y-83992179D01*
X117530109Y-83820213D01*
X117379786Y-83669890D01*
X117207820Y-83544951D01*
X117207115Y-83544591D01*
X117199054Y-83540485D01*
X117148259Y-83492512D01*
X117131463Y-83424692D01*
X117153999Y-83358556D01*
X117199054Y-83319515D01*
X117207816Y-83315051D01*
X117347498Y-83213567D01*
X117379786Y-83190109D01*
X117379788Y-83190106D01*
X117379792Y-83190104D01*
X117530104Y-83039792D01*
X117530106Y-83039788D01*
X117530109Y-83039786D01*
X117655048Y-82867820D01*
X117655047Y-82867820D01*
X117655051Y-82867816D01*
X117751557Y-82678412D01*
X117817246Y-82476243D01*
X117850500Y-82266287D01*
X117850500Y-82053713D01*
X117817246Y-81843757D01*
X117751557Y-81641588D01*
X117655051Y-81452184D01*
X117655049Y-81452181D01*
X117655048Y-81452179D01*
X117530109Y-81280213D01*
X117379786Y-81129890D01*
X117207820Y-81004951D01*
X117207115Y-81004591D01*
X117199054Y-81000485D01*
X117148259Y-80952512D01*
X117131463Y-80884692D01*
X117153999Y-80818556D01*
X117199054Y-80779515D01*
X117207816Y-80775051D01*
X117285128Y-80718881D01*
X117379786Y-80650109D01*
X117379788Y-80650106D01*
X117379792Y-80650104D01*
X117530104Y-80499792D01*
X117530106Y-80499788D01*
X117530109Y-80499786D01*
X117655048Y-80327820D01*
X117655047Y-80327820D01*
X117655051Y-80327816D01*
X117751557Y-80138412D01*
X117817246Y-79936243D01*
X117850500Y-79726287D01*
X117850500Y-79579096D01*
X117870185Y-79512058D01*
X117922989Y-79466303D01*
X117992147Y-79456359D01*
X118055703Y-79485384D01*
X118062181Y-79491416D01*
X118363181Y-79792416D01*
X118396666Y-79853739D01*
X118399500Y-79880097D01*
X118399500Y-95413330D01*
X118399499Y-95413348D01*
X118399499Y-95579054D01*
X118399498Y-95579054D01*
X118440424Y-95731789D01*
X118440425Y-95731790D01*
X118465400Y-95775047D01*
X118465401Y-95775049D01*
X118519475Y-95868709D01*
X118519481Y-95868717D01*
X118638349Y-95987585D01*
X118638355Y-95987590D01*
X125165425Y-102514660D01*
X125198910Y-102575983D01*
X125199361Y-102578149D01*
X125230261Y-102733491D01*
X125230264Y-102733501D01*
X125290602Y-102879172D01*
X125290609Y-102879185D01*
X125378210Y-103010288D01*
X125378213Y-103010292D01*
X125489707Y-103121786D01*
X125489711Y-103121789D01*
X125620814Y-103209390D01*
X125620827Y-103209397D01*
X125766498Y-103269735D01*
X125766503Y-103269737D01*
X125921153Y-103300499D01*
X125921156Y-103300500D01*
X125921158Y-103300500D01*
X126078844Y-103300500D01*
X126078845Y-103300499D01*
X126233497Y-103269737D01*
X126379179Y-103209394D01*
X126510289Y-103121789D01*
X126621789Y-103010289D01*
X126709394Y-102879179D01*
X126769737Y-102733497D01*
X126800500Y-102578842D01*
X126800500Y-102421158D01*
X126800500Y-102421155D01*
X126800499Y-102421153D01*
X126769737Y-102266503D01*
X126769735Y-102266498D01*
X126709397Y-102120827D01*
X126709390Y-102120814D01*
X126621789Y-101989711D01*
X126621786Y-101989707D01*
X126510292Y-101878213D01*
X126510288Y-101878210D01*
X126379185Y-101790609D01*
X126379172Y-101790602D01*
X126233501Y-101730264D01*
X126233491Y-101730261D01*
X126078149Y-101699361D01*
X126016238Y-101666976D01*
X126014660Y-101665425D01*
X119636819Y-95287584D01*
X119603334Y-95226261D01*
X119600500Y-95199903D01*
X119600500Y-79852135D01*
X131399500Y-79852135D01*
X131399500Y-81947870D01*
X131399501Y-81947876D01*
X131405908Y-82007483D01*
X131456202Y-82142328D01*
X131456206Y-82142335D01*
X131542452Y-82257544D01*
X131542455Y-82257547D01*
X131657664Y-82343793D01*
X131657671Y-82343797D01*
X131792517Y-82394091D01*
X131792516Y-82394091D01*
X131799444Y-82394835D01*
X131852127Y-82400500D01*
X135147872Y-82400499D01*
X135207483Y-82394091D01*
X135342331Y-82343796D01*
X135457546Y-82257546D01*
X135543796Y-82142331D01*
X135594091Y-82007483D01*
X135600500Y-81947873D01*
X135600499Y-79852128D01*
X135594091Y-79792517D01*
X135594053Y-79792416D01*
X135543797Y-79657671D01*
X135543793Y-79657664D01*
X135457547Y-79542455D01*
X135457544Y-79542452D01*
X135342335Y-79456206D01*
X135342328Y-79456202D01*
X135207482Y-79405908D01*
X135207483Y-79405908D01*
X135147883Y-79399501D01*
X135147881Y-79399500D01*
X135147873Y-79399500D01*
X135147864Y-79399500D01*
X131852129Y-79399500D01*
X131852123Y-79399501D01*
X131792516Y-79405908D01*
X131657671Y-79456202D01*
X131657664Y-79456206D01*
X131542455Y-79542452D01*
X131542452Y-79542455D01*
X131456206Y-79657664D01*
X131456202Y-79657671D01*
X131405908Y-79792517D01*
X131401980Y-79829059D01*
X131399501Y-79852123D01*
X131399500Y-79852135D01*
X119600500Y-79852135D01*
X119600500Y-79669059D01*
X119600501Y-79669046D01*
X119600501Y-79500945D01*
X119600501Y-79500943D01*
X119559577Y-79348215D01*
X119530639Y-79298095D01*
X119480520Y-79211284D01*
X119368716Y-79099480D01*
X119368715Y-79099479D01*
X119364385Y-79095149D01*
X119364374Y-79095139D01*
X117833757Y-77564522D01*
X117800272Y-77503199D01*
X117803507Y-77438523D01*
X117817246Y-77396243D01*
X117850500Y-77186287D01*
X117850500Y-76973713D01*
X117817246Y-76763757D01*
X117751557Y-76561588D01*
X117655051Y-76372184D01*
X117655049Y-76372181D01*
X117655048Y-76372179D01*
X117530109Y-76200213D01*
X117379786Y-76049890D01*
X117207817Y-75924949D01*
X117198504Y-75920204D01*
X117147707Y-75872230D01*
X117130912Y-75804409D01*
X117153449Y-75738274D01*
X117198507Y-75699232D01*
X117207555Y-75694622D01*
X117261716Y-75655270D01*
X117261717Y-75655270D01*
X116629408Y-75022962D01*
X116692993Y-75005925D01*
X116807007Y-74940099D01*
X116900099Y-74847007D01*
X116965925Y-74732993D01*
X116982962Y-74669409D01*
X117615270Y-75301717D01*
X117615270Y-75301716D01*
X117654622Y-75247554D01*
X117751095Y-75058217D01*
X117816757Y-74856130D01*
X117816757Y-74856127D01*
X117850000Y-74646246D01*
X117850000Y-74433753D01*
X117816757Y-74223872D01*
X117816757Y-74223869D01*
X117751095Y-74021782D01*
X117654624Y-73832449D01*
X117615270Y-73778282D01*
X117615269Y-73778282D01*
X116982962Y-74410590D01*
X116965925Y-74347007D01*
X116900099Y-74232993D01*
X116807007Y-74139901D01*
X116692993Y-74074075D01*
X116629409Y-74057037D01*
X117299627Y-73386818D01*
X117360950Y-73353333D01*
X117387307Y-73350499D01*
X117397872Y-73350499D01*
X117457483Y-73344091D01*
X117592331Y-73293796D01*
X117707546Y-73207546D01*
X117793796Y-73092331D01*
X117844091Y-72957483D01*
X117850500Y-72897873D01*
X117850499Y-71102128D01*
X117844091Y-71042517D01*
X117827891Y-70999083D01*
X117793797Y-70907671D01*
X117793793Y-70907664D01*
X117707547Y-70792455D01*
X117707544Y-70792452D01*
X117592335Y-70706206D01*
X117592328Y-70706202D01*
X117457482Y-70655908D01*
X117457483Y-70655908D01*
X117397883Y-70649501D01*
X117397881Y-70649500D01*
X117397873Y-70649500D01*
X117397864Y-70649500D01*
X115602129Y-70649500D01*
X115602123Y-70649501D01*
X115542516Y-70655908D01*
X115407671Y-70706202D01*
X115407664Y-70706206D01*
X115292455Y-70792452D01*
X115292452Y-70792455D01*
X115206206Y-70907664D01*
X115206202Y-70907671D01*
X115155908Y-71042517D01*
X115149997Y-71097500D01*
X115149501Y-71102123D01*
X115149500Y-71102135D01*
X115149500Y-71275500D01*
X115129815Y-71342539D01*
X115077011Y-71388294D01*
X115025500Y-71399500D01*
X84087000Y-71399500D01*
X84019961Y-71379815D01*
X83974206Y-71327011D01*
X83963000Y-71275500D01*
X83962999Y-70299629D01*
X83962998Y-70299623D01*
X83962997Y-70299616D01*
X83956591Y-70240017D01*
X83920657Y-70143674D01*
X83906297Y-70105171D01*
X83906293Y-70105164D01*
X83820047Y-69989955D01*
X83820044Y-69989952D01*
X83704835Y-69903706D01*
X83704828Y-69903702D01*
X83569982Y-69853408D01*
X83569983Y-69853408D01*
X83510383Y-69847001D01*
X83510381Y-69847000D01*
X83510373Y-69847000D01*
X83510364Y-69847000D01*
X81914629Y-69847000D01*
X81914623Y-69847001D01*
X81855016Y-69853408D01*
X81720171Y-69903702D01*
X81720164Y-69903706D01*
X81604955Y-69989952D01*
X81604952Y-69989955D01*
X81518706Y-70105164D01*
X81518702Y-70105171D01*
X81468408Y-70240017D01*
X81463803Y-70282854D01*
X81462001Y-70299623D01*
X81462000Y-70299635D01*
X81462000Y-70363232D01*
X81442315Y-70430271D01*
X81389511Y-70476026D01*
X81320353Y-70485970D01*
X81256797Y-70456945D01*
X81237682Y-70436118D01*
X81138520Y-70299635D01*
X81126328Y-70282854D01*
X80987146Y-70143672D01*
X80827905Y-70027976D01*
X80652529Y-69938617D01*
X80465326Y-69877790D01*
X80270922Y-69847000D01*
X80270917Y-69847000D01*
X80074083Y-69847000D01*
X80074078Y-69847000D01*
X79879673Y-69877790D01*
X79692470Y-69938617D01*
X79517094Y-70027976D01*
X79426241Y-70093985D01*
X79357854Y-70143672D01*
X79357852Y-70143674D01*
X79357851Y-70143674D01*
X79218674Y-70282851D01*
X79218674Y-70282852D01*
X79218672Y-70282854D01*
X79206480Y-70299635D01*
X79102976Y-70442094D01*
X79012985Y-70618713D01*
X78965011Y-70669509D01*
X78897190Y-70686304D01*
X78831055Y-70663767D01*
X78792015Y-70618713D01*
X78724379Y-70485970D01*
X78702024Y-70442095D01*
X78586328Y-70282854D01*
X78447146Y-70143672D01*
X78287905Y-70027976D01*
X78112529Y-69938617D01*
X77925326Y-69877790D01*
X77730922Y-69847000D01*
X77730917Y-69847000D01*
X77534083Y-69847000D01*
X77534078Y-69847000D01*
X77339673Y-69877790D01*
X77152470Y-69938617D01*
X76977094Y-70027976D01*
X76886241Y-70093985D01*
X76817854Y-70143672D01*
X76817852Y-70143674D01*
X76817851Y-70143674D01*
X76678674Y-70282851D01*
X76678674Y-70282852D01*
X76678672Y-70282854D01*
X76666480Y-70299635D01*
X76562976Y-70442094D01*
X76472704Y-70619264D01*
X76424729Y-70670060D01*
X76356908Y-70686855D01*
X76290774Y-70664318D01*
X76251734Y-70619264D01*
X76161596Y-70442358D01*
X76136178Y-70407373D01*
X76136177Y-70407373D01*
X75492500Y-71051051D01*
X75492500Y-71044839D01*
X75465241Y-70943106D01*
X75412580Y-70851894D01*
X75338106Y-70777420D01*
X75246894Y-70724759D01*
X75145161Y-70697500D01*
X75138947Y-70697500D01*
X75782625Y-70053820D01*
X75782625Y-70053819D01*
X75747645Y-70028405D01*
X75572335Y-69939081D01*
X75385205Y-69878278D01*
X75190882Y-69847500D01*
X74994118Y-69847500D01*
X74799794Y-69878278D01*
X74612661Y-69939082D01*
X74437363Y-70028399D01*
X74437359Y-70028402D01*
X74402373Y-70053820D01*
X74402372Y-70053820D01*
X75046054Y-70697500D01*
X75039839Y-70697500D01*
X74938106Y-70724759D01*
X74846894Y-70777420D01*
X74772420Y-70851894D01*
X74719759Y-70943106D01*
X74692500Y-71044839D01*
X74692500Y-71051052D01*
X74048820Y-70407372D01*
X74048820Y-70407373D01*
X74023402Y-70442359D01*
X74023399Y-70442363D01*
X73934082Y-70617661D01*
X73873278Y-70804794D01*
X73842500Y-70999117D01*
X63391283Y-70999117D01*
X63939076Y-70451324D01*
X63941407Y-70449055D01*
X64955534Y-69488423D01*
X64957945Y-69486200D01*
X65997789Y-68553315D01*
X66000173Y-68551234D01*
X67064901Y-67646846D01*
X67067352Y-67644821D01*
X68156102Y-66769658D01*
X68158683Y-66767639D01*
X69270782Y-65922244D01*
X69273428Y-65920290D01*
X70407909Y-65105393D01*
X70410655Y-65103477D01*
X71566789Y-64319598D01*
X71569545Y-64317783D01*
X72746494Y-63565493D01*
X72749337Y-63563730D01*
X72890844Y-63478588D01*
X73946260Y-62843564D01*
X73949075Y-62841923D01*
X75165077Y-62154424D01*
X75167914Y-62152871D01*
X76402117Y-61498537D01*
X76404981Y-61497068D01*
X77656450Y-60876396D01*
X77659424Y-60874972D01*
X78927176Y-60288448D01*
X78930136Y-60287126D01*
X80213391Y-59735110D01*
X80216385Y-59733870D01*
X81155812Y-59359568D01*
X97499500Y-59359568D01*
X97499500Y-59640431D01*
X97530942Y-59919494D01*
X97530945Y-59919512D01*
X97593439Y-60193317D01*
X97593443Y-60193329D01*
X97686200Y-60458411D01*
X97808053Y-60711442D01*
X97808055Y-60711445D01*
X97957477Y-60949248D01*
X98132584Y-61168825D01*
X98331175Y-61367416D01*
X98550752Y-61542523D01*
X98788555Y-61691945D01*
X99041592Y-61813801D01*
X99240680Y-61883465D01*
X99306670Y-61906556D01*
X99306682Y-61906560D01*
X99580491Y-61969055D01*
X99580497Y-61969055D01*
X99580505Y-61969057D01*
X99766547Y-61990018D01*
X99859569Y-62000499D01*
X99859572Y-62000500D01*
X99859575Y-62000500D01*
X100140428Y-62000500D01*
X100140429Y-62000499D01*
X100283055Y-61984429D01*
X100419494Y-61969057D01*
X100419499Y-61969056D01*
X100419509Y-61969055D01*
X100693318Y-61906560D01*
X100958408Y-61813801D01*
X101211445Y-61691945D01*
X101449248Y-61542523D01*
X101668825Y-61367416D01*
X101867416Y-61168825D01*
X102042523Y-60949248D01*
X102191945Y-60711445D01*
X102313801Y-60458408D01*
X102406560Y-60193318D01*
X102469055Y-59919509D01*
X102500500Y-59640425D01*
X102500500Y-59359575D01*
X102469055Y-59080491D01*
X102406560Y-58806682D01*
X102313801Y-58541592D01*
X102191945Y-58288555D01*
X102042523Y-58050752D01*
X101867416Y-57831175D01*
X101668825Y-57632584D01*
X101449248Y-57457477D01*
X101285004Y-57354275D01*
X101211442Y-57308053D01*
X100958411Y-57186200D01*
X100693329Y-57093443D01*
X100693317Y-57093439D01*
X100419512Y-57030945D01*
X100419494Y-57030942D01*
X100140431Y-56999500D01*
X100140425Y-56999500D01*
X99859575Y-56999500D01*
X99859568Y-56999500D01*
X99580505Y-57030942D01*
X99580487Y-57030945D01*
X99306682Y-57093439D01*
X99306670Y-57093443D01*
X99041588Y-57186200D01*
X98788557Y-57308053D01*
X98550753Y-57457476D01*
X98331175Y-57632583D01*
X98132583Y-57831175D01*
X97957476Y-58050753D01*
X97808053Y-58288557D01*
X97686200Y-58541588D01*
X97593443Y-58806670D01*
X97593439Y-58806682D01*
X97530945Y-59080487D01*
X97530942Y-59080505D01*
X97499500Y-59359568D01*
X81155812Y-59359568D01*
X81514047Y-59216834D01*
X81517115Y-59215659D01*
X82828312Y-58733950D01*
X82831451Y-58732844D01*
X84155160Y-58286834D01*
X84158300Y-58285824D01*
X85493644Y-57875811D01*
X85496799Y-57874888D01*
X86842715Y-57501196D01*
X86845955Y-57500344D01*
X87018331Y-57457476D01*
X88201520Y-57163229D01*
X88204737Y-57162476D01*
X89568975Y-56862184D01*
X89572136Y-56861534D01*
X90944041Y-56598288D01*
X90947129Y-56597738D01*
X92325749Y-56371725D01*
X92328938Y-56371247D01*
X93713060Y-56182664D01*
X93716302Y-56182267D01*
X95104968Y-56031241D01*
X95108271Y-56030926D01*
X96500548Y-55917557D01*
X96503803Y-55917337D01*
X97898585Y-55841714D01*
X97901915Y-55841578D01*
X99298259Y-55803752D01*
X99301617Y-55803707D01*
X100698383Y-55803707D01*
X100701741Y-55803752D01*
G37*
%TD.AperFunction*%
%TD*%
M02*
