%TF.GenerationSoftware,KiCad,Pcbnew,10.0.2*%
%TF.CreationDate,2026-10-10T15:39:24+02:00*%
%TF.ProjectId,LambdaV2,4c616d62-6461-4563-922e-6b696361645f,rev?*%
%TF.SameCoordinates,Original*%
%TF.FileFunction,Soldermask,Top*%
%TF.FilePolarity,Negative*%
%FSLAX46Y46*%
G04 Gerber Fmt 4.6, Leading zero omitted, Abs format (unit mm)*
G04 Created by KiCad (PCBNEW 10.0.2) date 2026-10-10 15:39:24*
%MOMM*%
%LPD*%
G01*
G04 APERTURE LIST*
G04 Aperture macros list*
%AMRoundRect*
0 Rectangle with rounded corners*
0 $1 Rounding radius*
0 $2 $3 $4 $5 $6 $7 $8 $9 X,Y pos of 4 corners*
0 Add a 4 corners polygon primitive as box body*
4,1,4,$2,$3,$4,$5,$6,$7,$8,$9,$2,$3,0*
0 Add four circle primitives for the rounded corners*
1,1,$1+$1,$2,$3*
1,1,$1+$1,$4,$5*
1,1,$1+$1,$6,$7*
1,1,$1+$1,$8,$9*
0 Add four rect primitives between the rounded corners*
20,1,$1+$1,$2,$3,$4,$5,0*
20,1,$1+$1,$4,$5,$6,$7,0*
20,1,$1+$1,$6,$7,$8,$9,0*
20,1,$1+$1,$8,$9,$2,$3,0*%
G04 Aperture macros list end*
%ADD10C,2.000000*%
%ADD11C,1.400000*%
%ADD12C,5.000000*%
%ADD13R,1.700000X1.700000*%
%ADD14C,1.700000*%
%ADD15C,4.000000*%
%ADD16C,2.200000*%
%ADD17C,0.650000*%
%ADD18RoundRect,0.150000X0.470000X-0.150000X0.470000X0.150000X-0.470000X0.150000X-0.470000X-0.150000X0*%
%ADD19RoundRect,0.075000X0.545000X-0.075000X0.545000X0.075000X-0.545000X0.075000X-0.545000X-0.075000X0*%
%ADD20O,2.100000X1.000000*%
%ADD21O,1.800000X1.000000*%
%ADD22R,2.000000X2.000000*%
%ADD23R,1.200000X2.000000*%
%ADD24O,1.200000X2.000000*%
%ADD25O,3.800000X2.900000*%
%ADD26O,1.700000X1.700000*%
%ADD27R,3.200000X2.000000*%
%ADD28R,1.500000X1.500000*%
%ADD29C,1.500000*%
G04 APERTURE END LIST*
D10*
%TO.C,SW5*%
X97250000Y-102250000D03*
X103750000Y-102250000D03*
X97250000Y-106750000D03*
X103750000Y-106750000D03*
%TD*%
%TO.C,SW4*%
X82000000Y-92000000D03*
X88500000Y-92000000D03*
X82000000Y-96500000D03*
X88500000Y-96500000D03*
%TD*%
D11*
%TO.C,R1*%
X121880000Y-100000000D03*
X129500000Y-100000000D03*
%TD*%
D12*
%TO.C,H1*%
X200000000Y-45500000D03*
%TD*%
D13*
%TO.C,J3*%
X157000000Y-139000000D03*
D14*
X157000000Y-136460000D03*
X157000000Y-133920000D03*
X157000000Y-131380000D03*
X157000000Y-128840000D03*
%TD*%
D12*
%TO.C,H2*%
X75000000Y-45500000D03*
%TD*%
D14*
%TO.C,SW1*%
X111920000Y-118000000D03*
D15*
X117000000Y-118000000D03*
D14*
X122080000Y-118000000D03*
D16*
X119540000Y-112920000D03*
X113190000Y-115460000D03*
%TD*%
D17*
%TO.C,P1*%
X199804649Y-64060913D03*
X199804649Y-58280913D03*
D18*
X198684649Y-64370913D03*
X198684649Y-63570913D03*
D19*
X198684649Y-62420913D03*
X198684649Y-61420913D03*
X198684649Y-60920913D03*
X198684649Y-59920913D03*
D18*
X198684649Y-58770913D03*
X198684649Y-57970913D03*
X198684649Y-57970913D03*
X198684649Y-58770913D03*
D19*
X198684649Y-59420913D03*
X198684649Y-60420913D03*
X198684649Y-61920913D03*
X198684649Y-62920913D03*
D18*
X198684649Y-63570913D03*
X198684649Y-64370913D03*
D20*
X199284649Y-65490913D03*
D21*
X203484649Y-65490913D03*
D20*
X199284649Y-56850913D03*
D21*
X203484649Y-56850913D03*
%TD*%
D22*
%TO.C,BZ1*%
X172700000Y-95500000D03*
D10*
X180300000Y-95500000D03*
%TD*%
D14*
%TO.C,SW2*%
X92880000Y-137080000D03*
D15*
X97960000Y-137080000D03*
D14*
X103040000Y-137080000D03*
D16*
X100500000Y-132000000D03*
X94150000Y-134540000D03*
%TD*%
D13*
%TO.C,J2*%
X145920000Y-82500000D03*
D14*
X148460000Y-82500000D03*
X151000000Y-82500000D03*
X153540000Y-82500000D03*
X156080000Y-82500000D03*
X158620000Y-82500000D03*
X161160000Y-82500000D03*
X163700000Y-82500000D03*
%TD*%
D23*
%TO.C,U1*%
X119876540Y-54570000D03*
D24*
X117336540Y-54570000D03*
X114796540Y-54570000D03*
X112256540Y-54570000D03*
X109716540Y-54570000D03*
X107176540Y-54570000D03*
X104636540Y-54570000D03*
X102096540Y-54570000D03*
X99556540Y-54570000D03*
X97016540Y-54570000D03*
X94476540Y-54570000D03*
X91936540Y-54570000D03*
X89396540Y-54570000D03*
X86856540Y-54570000D03*
X84316540Y-54570000D03*
X81776540Y-54570000D03*
X81776540Y-77430000D03*
X84316540Y-77430000D03*
X86856540Y-77430000D03*
X89396540Y-77430000D03*
X91936540Y-77430000D03*
X94476540Y-77430000D03*
X97016540Y-77430000D03*
X99556540Y-77430000D03*
X102096540Y-77430000D03*
X104636540Y-77430000D03*
X107176540Y-77430000D03*
X109716540Y-77430000D03*
X112256540Y-77430000D03*
X114796540Y-77430000D03*
X117336540Y-77430000D03*
X119876540Y-77430000D03*
%TD*%
D25*
%TO.C,J1*%
X140324000Y-94127000D03*
X140324000Y-117241000D03*
X162676000Y-94127000D03*
X162676000Y-117241000D03*
D13*
X147690000Y-93492000D03*
D26*
X150230000Y-93492000D03*
X152770000Y-93492000D03*
X155310000Y-93492000D03*
%TD*%
D22*
%TO.C,SW7*%
X176000000Y-73000000D03*
D10*
X176000000Y-78000000D03*
X176000000Y-75500000D03*
D27*
X183500000Y-69900000D03*
X183500000Y-81100000D03*
D10*
X190500000Y-78000000D03*
X190500000Y-73000000D03*
%TD*%
D28*
%TO.C,U2*%
X125500000Y-91000000D03*
D29*
X122960000Y-91000000D03*
X120420000Y-91000000D03*
X117880000Y-91000000D03*
%TD*%
D14*
%TO.C,SW3*%
X130920000Y-137040000D03*
D15*
X136000000Y-137040000D03*
D14*
X141080000Y-137040000D03*
D16*
X138540000Y-131960000D03*
X132190000Y-134500000D03*
%TD*%
M02*
